<?xml version="1.0" encoding="UTF-8" standalone="no"?><svg xmlns="http://www.w3.org/2000/svg" xmlns:xlink="http://www.w3.org/1999/xlink" contentScriptType="application/ecmascript" contentStyleType="text/css" height="1281px" preserveAspectRatio="none" style="width:1878px;height:1281px;" version="1.1" viewBox="0 0 1878 1281" width="1878px" zoomAndPan="magnify"><defs><filter height="300%" id="f19m7n96chqvhk" width="300%" x="-1" y="-1"><feGaussianBlur result="blurOut" stdDeviation="2.0"/><feColorMatrix in="blurOut" result="blurOut2" type="matrix" values="0 0 0 0 0 0 0 0 0 0 0 0 0 0 0 0 0 0 .4 0"/><feOffset dx="4.0" dy="4.0" in="blurOut2" result="blurOut3"/><feBlend in="SourceGraphic" in2="blurOut3" mode="normal"/></filter></defs><g><text fill="#888888" font-family="sans-serif" font-size="10" lengthAdjust="spacingAndGlyphs" textLength="73" x="1793" y="9.2822">Proyecto CJDB</text><text fill="#000000" font-family="sans-serif" font-size="20" lengthAdjust="spacingAndGlyphs" textLength="329" x="768.5" y="30.2051">Sistema de Banco de Datos CJDB</text><!--MD5=[464ccf26cf2da1d2e8de64c8c3921dc2]
cluster Plataforma Banco de Datos CJDB--><rect fill="#FFFFFF" filter="url(#f19m7n96chqvhk)" height="1059" rx="10" ry="10" style="stroke: #000000; stroke-width: 1.5;" width="1290" x="317" y="58.9219"/><text fill="#000000" font-family="sans-serif" font-size="14" font-weight="bold" lengthAdjust="spacingAndGlyphs" textLength="253" x="835.5" y="73.917">Plataforma Banco de Datos CJDB</text><!--MD5=[791a8f0ecdf6d6c82845cd6f3060bf11]
cluster Módulo: Identidad (RF-01)--><path d="M375,542.9219 L564,542.9219 A15,15 0 0 1 574,552.9219 L581,565.2188 L920,565.2188 A10,10 0 0 1 930,575.2188 L930,833.9219 A10,10 0 0 1 920,843.9219 L375,843.9219 A10,10 0 0 1 365,833.9219 L365,552.9219 A10,10 0 0 1 375,542.9219 " fill="#FFFFFF" filter="url(#f19m7n96chqvhk)" style="stroke: #000000; stroke-width: 1.5;"/><line style="stroke: #000000; stroke-width: 1.5;" x1="365" x2="581" y1="565.2188" y2="565.2188"/><text fill="#000000" font-family="sans-serif" font-size="14" font-weight="bold" lengthAdjust="spacingAndGlyphs" textLength="203" x="369" y="557.917">Módulo: Identidad (RF-01)</text><!--MD5=[9ae9340fd9441256ffa595c61f553641]
cluster Módulo: Búsqueda y Perfil (RF-03/04)--><path d="M377.5,289.9219 L656.5,289.9219 A15,15 0 0 1 666.5,299.9219 L673.5,312.2188 L1218,312.2188 A10,10 0 0 1 1228,322.2188 L1228,508.9219 A10,10 0 0 1 1218,518.9219 L377.5,518.9219 A10,10 0 0 1 367.5,508.9219 L367.5,299.9219 A10,10 0 0 1 377.5,289.9219 " fill="#FFFFFF" filter="url(#f19m7n96chqvhk)" style="stroke: #000000; stroke-width: 1.5;"/><line style="stroke: #000000; stroke-width: 1.5;" x1="367.5" x2="673.5" y1="312.2188" y2="312.2188"/><text fill="#000000" font-family="sans-serif" font-size="14" font-weight="bold" lengthAdjust="spacingAndGlyphs" textLength="293" x="371.5" y="304.917">Módulo: Búsqueda y Perfil (RF-03/04)</text><!--MD5=[c77e51aade7755a1904ac906ae8cb2dc]
cluster Módulo: Gestión Laboral (RF-02)--><path d="M1034,101.9219 L1274,101.9219 A15,15 0 0 1 1284,111.9219 L1291,124.2188 L1572.5,124.2188 A10,10 0 0 1 1582.5,134.2188 L1582.5,255.9219 A10,10 0 0 1 1572.5,265.9219 L1034,265.9219 A10,10 0 0 1 1024,255.9219 L1024,111.9219 A10,10 0 0 1 1034,101.9219 " fill="#FFFFFF" filter="url(#f19m7n96chqvhk)" style="stroke: #000000; stroke-width: 1.5;"/><line style="stroke: #000000; stroke-width: 1.5;" x1="1024" x2="1291" y1="124.2188" y2="124.2188"/><text fill="#000000" font-family="sans-serif" font-size="14" font-weight="bold" lengthAdjust="spacingAndGlyphs" textLength="254" x="1028" y="116.917">Módulo: Gestión Laboral (RF-02)</text><!--MD5=[2ad29e4c14d4e8414a540907018e6ff8]
cluster Módulo: Administración (RF-05)--><path d="M351,867.9219 L584,867.9219 A15,15 0 0 1 594,877.9219 L601,890.2188 L594,890.2188 A10,10 0 0 1 604,900.2188 L604,1083.9219 A10,10 0 0 1 594,1093.9219 L351,1093.9219 A10,10 0 0 1 341,1083.9219 L341,877.9219 A10,10 0 0 1 351,867.9219 " fill="#FFFFFF" filter="url(#f19m7n96chqvhk)" style="stroke: #000000; stroke-width: 1.5;"/><line style="stroke: #000000; stroke-width: 1.5;" x1="341" x2="601" y1="890.2188" y2="890.2188"/><text fill="#000000" font-family="sans-serif" font-size="14" font-weight="bold" lengthAdjust="spacingAndGlyphs" textLength="247" x="345" y="882.917">Módulo: Administración (RF-05)</text><ellipse cx="1469.7725" cy="324.9764" fill="#FEFECE" filter="url(#f19m7n96chqvhk)" rx="120.7725" ry="26.5545" style="stroke: #A80036; stroke-width: 1.5;"/><text fill="#000000" font-family="sans-serif" font-size="14" font-style="italic" lengthAdjust="spacingAndGlyphs" textLength="75" x="1432.2725" y="315.4447">«Abstract»</text><text fill="#000000" font-family="sans-serif" font-size="14" lengthAdjust="spacingAndGlyphs" textLength="212" x="1363.7725" y="331.7416">Verificar Verificación de Cuenta</text><ellipse cx="472.2002" cy="595.7619" fill="#FEFECE" filter="url(#f19m7n96chqvhk)" rx="74.7002" ry="17.34" style="stroke: #A80036; stroke-width: 1.5;"/><text fill="#000000" font-family="sans-serif" font-size="14" lengthAdjust="spacingAndGlyphs" textLength="118" x="413.2002" y="600.4104">Registrar Usuario</text><ellipse cx="472.2036" cy="664.0626" fill="#FEFECE" filter="url(#f19m7n96chqvhk)" rx="63.7036" ry="15.1407" style="stroke: #A80036; stroke-width: 1.5;"/><text fill="#000000" font-family="sans-serif" font-size="14" lengthAdjust="spacingAndGlyphs" textLength="90" x="427.2036" y="668.711">Iniciar Sesión</text><ellipse cx="471.9996" cy="735.0218" fill="#FEFECE" filter="url(#f19m7n96chqvhk)" rx="90.9996" ry="20.5999" style="stroke: #A80036; stroke-width: 1.5;"/><text fill="#000000" font-family="sans-serif" font-size="14" lengthAdjust="spacingAndGlyphs" textLength="156" x="393.9996" y="739.6702">Recuperar Contraseña</text><ellipse cx="471.9883" cy="809.0195" fill="#FEFECE" filter="url(#f19m7n96chqvhk)" rx="80.9883" ry="18.5977" style="stroke: #A80036; stroke-width: 1.5;"/><text fill="#000000" font-family="sans-serif" font-size="14" lengthAdjust="spacingAndGlyphs" textLength="133" x="405.4883" y="813.668">Validar Token Email</text><ellipse cx="830.5607" cy="735.0975" fill="#FEFECE" filter="url(#f19m7n96chqvhk)" rx="83.5607" ry="24.1756" style="stroke: #A80036; stroke-width: 1.5;"/><text fill="#000000" font-family="sans-serif" font-size="14" font-style="italic" lengthAdjust="spacingAndGlyphs" textLength="70" x="795.5607" y="728.8216">«Internal»</text><text fill="#000000" font-family="sans-serif" font-size="14" lengthAdjust="spacingAndGlyphs" textLength="124" x="768.5607" y="745.1185">Enviar Notificación</text><ellipse cx="471.7758" cy="467.977" fill="#FEFECE" filter="url(#f19m7n96chqvhk)" rx="68.2758" ry="16.0552" style="stroke: #A80036; stroke-width: 1.5;"/><text fill="#000000" font-family="sans-serif" font-size="14" lengthAdjust="spacingAndGlyphs" textLength="102" x="420.7758" y="472.6255">Buscar Ofertas</text><ellipse cx="830.6122" cy="484.8443" fill="#FEFECE" filter="url(#f19m7n96chqvhk)" rx="75.1122" ry="17.4224" style="stroke: #A80036; stroke-width: 1.5;"/><text fill="#000000" font-family="sans-serif" font-size="14" lengthAdjust="spacingAndGlyphs" textLength="119" x="771.1122" y="489.4928">Filtrar Resultados</text><ellipse cx="830.2932" cy="412.8805" fill="#FEFECE" filter="url(#f19m7n96chqvhk)" rx="85.2932" ry="19.4586" style="stroke: #A80036; stroke-width: 1.5;"/><text fill="#000000" font-family="sans-serif" font-size="14" lengthAdjust="spacingAndGlyphs" textLength="143" x="758.7932" y="417.529">Ver Detalle de Oferta</text><ellipse cx="471.8518" cy="344.9922" fill="#FEFECE" filter="url(#f19m7n96chqvhk)" rx="88.3518" ry="20.0704" style="stroke: #A80036; stroke-width: 1.5;"/><text fill="#000000" font-family="sans-serif" font-size="14" lengthAdjust="spacingAndGlyphs" textLength="150" x="396.8518" y="349.6407">Gestionar Perfil Digital</text><ellipse cx="830.4465" cy="342.1112" fill="#FEFECE" filter="url(#f19m7n96chqvhk)" rx="71.4465" ry="16.6893" style="stroke: #A80036; stroke-width: 1.5;"/><text fill="#000000" font-family="sans-serif" font-size="14" lengthAdjust="spacingAndGlyphs" textLength="110" x="775.4465" y="346.7596">Cargar CV (PDF)</text><ellipse cx="1132.8678" cy="343.0954" fill="#FEFECE" filter="url(#f19m7n96chqvhk)" rx="78.8678" ry="18.1736" style="stroke: #A80036; stroke-width: 1.5;"/><text fill="#000000" font-family="sans-serif" font-size="14" lengthAdjust="spacingAndGlyphs" textLength="128" x="1068.8678" y="347.7439">Postular a Vacante</text><ellipse cx="1132.7771" cy="157.8773" fill="#FEFECE" filter="url(#f19m7n96chqvhk)" rx="92.7771" ry="20.9554" style="stroke: #A80036; stroke-width: 1.5;"/><text fill="#000000" font-family="sans-serif" font-size="14" lengthAdjust="spacingAndGlyphs" textLength="160" x="1052.7771" y="162.5257">Publicar / Editar Ofertas</text><ellipse cx="1469.7758" cy="153.977" fill="#FEFECE" filter="url(#f19m7n96chqvhk)" rx="68.2758" ry="16.0552" style="stroke: #A80036; stroke-width: 1.5;"/><text fill="#000000" font-family="sans-serif" font-size="14" lengthAdjust="spacingAndGlyphs" textLength="102" x="1418.7758" y="158.6255">Cerrar Vacante</text><ellipse cx="1133.1884" cy="231.7596" fill="#FEFECE" filter="url(#f19m7n96chqvhk)" rx="77.1884" ry="17.8377" style="stroke: #A80036; stroke-width: 1.5;"/><text fill="#000000" font-family="sans-serif" font-size="14" lengthAdjust="spacingAndGlyphs" textLength="124" x="1071.1884" y="236.408">Ver Postulaciones</text><ellipse cx="1469.8591" cy="227.0937" fill="#FEFECE" filter="url(#f19m7n96chqvhk)" rx="96.3591" ry="21.6718" style="stroke: #A80036; stroke-width: 1.5;"/><text fill="#000000" font-family="sans-serif" font-size="14" lengthAdjust="spacingAndGlyphs" textLength="168" x="1385.8591" y="231.7421">Descargar CV Candidato</text><ellipse cx="471.9883" cy="987.0195" fill="#FEFECE" filter="url(#f19m7n96chqvhk)" rx="80.9883" ry="18.5977" style="stroke: #A80036; stroke-width: 1.5;"/><text fill="#000000" font-family="sans-serif" font-size="14" lengthAdjust="spacingAndGlyphs" textLength="133" x="405.4883" y="991.668">Moderar Contenido</text><ellipse cx="472.1374" cy="1058.8494" fill="#FEFECE" filter="url(#f19m7n96chqvhk)" rx="80.1374" ry="18.4275" style="stroke: #A80036; stroke-width: 1.5;"/><text fill="#000000" font-family="sans-serif" font-size="14" lengthAdjust="spacingAndGlyphs" textLength="131" x="406.6374" y="1063.4978">Gestionar Usuarios</text><ellipse cx="471.8742" cy="917.6967" fill="#FEFECE" filter="url(#f19m7n96chqvhk)" rx="61.8742" ry="14.7748" style="stroke: #A80036; stroke-width: 1.5;"/><text fill="#000000" font-family="sans-serif" font-size="14" lengthAdjust="spacingAndGlyphs" textLength="85" x="429.3742" y="922.3452">Ver Métricas</text><!--MD5=[9eecb807d8a7c1ba44cb916f191401d3]
entity Guest--><ellipse cx="240.5" cy="470.9219" fill="#FEFECE" filter="url(#f19m7n96chqvhk)" rx="8" ry="8" style="stroke: #A80036; stroke-width: 1.5;"/><path d="M240.5,478.9219 L240.5,505.9219 M227.5,486.9219 L253.5,486.9219 M240.5,505.9219 L227.5,520.9219 M240.5,505.9219 L253.5,520.9219 " fill="none" filter="url(#f19m7n96chqvhk)" style="stroke: #A80036; stroke-width: 1.5;"/><text fill="#000000" font-family="sans-serif" font-size="14" lengthAdjust="spacingAndGlyphs" textLength="59" x="211" y="539.417">Visitante</text><!--MD5=[b0178da15e77bd2872e27034dc3dd9f3]
entity Searcher--><ellipse cx="78" cy="313.9219" fill="#FEFECE" filter="url(#f19m7n96chqvhk)" rx="8" ry="8" style="stroke: #A80036; stroke-width: 1.5;"/><path d="M78,321.9219 L78,348.9219 M65,329.9219 L91,329.9219 M78,348.9219 L65,363.9219 M78,348.9219 L91,363.9219 " fill="none" filter="url(#f19m7n96chqvhk)" style="stroke: #A80036; stroke-width: 1.5;"/><text fill="#000000" font-family="sans-serif" font-size="14" lengthAdjust="spacingAndGlyphs" textLength="144" x="6" y="382.417">Buscador de Empleo</text><!--MD5=[e3d7fad956befb23f1a8093c12fc44a0]
entity Employer--><ellipse cx="78" cy="164.9219" fill="#FEFECE" filter="url(#f19m7n96chqvhk)" rx="8" ry="8" style="stroke: #A80036; stroke-width: 1.5;"/><path d="M78,172.9219 L78,199.9219 M65,180.9219 L91,180.9219 M78,199.9219 L65,214.9219 M78,199.9219 L91,214.9219 " fill="none" filter="url(#f19m7n96chqvhk)" style="stroke: #A80036; stroke-width: 1.5;"/><text fill="#000000" font-family="sans-serif" font-size="14" lengthAdjust="spacingAndGlyphs" textLength="74" x="41" y="233.417">Empleador</text><!--MD5=[97ab183161fd5d1db7fba7485cf76add]
entity Admin--><ellipse cx="78" cy="919.9219" fill="#FEFECE" filter="url(#f19m7n96chqvhk)" rx="8" ry="8" style="stroke: #A80036; stroke-width: 1.5;"/><path d="M78,927.9219 L78,954.9219 M65,935.9219 L91,935.9219 M78,954.9219 L65,969.9219 M78,954.9219 L91,969.9219 " fill="none" filter="url(#f19m7n96chqvhk)" style="stroke: #A80036; stroke-width: 1.5;"/><text fill="#000000" font-family="sans-serif" font-size="14" lengthAdjust="spacingAndGlyphs" textLength="95" x="30.5" y="988.417">Administrador</text><!--MD5=[d6e75f2a2d9b7b2a48fe909117c6250f]
entity Mail--><ellipse cx="1133" cy="1159.7188" fill="#FEFECE" filter="url(#f19m7n96chqvhk)" rx="8" ry="8" style="stroke: #A80036; stroke-width: 1.5;"/><path d="M1133,1167.7188 L1133,1194.7188 M1120,1175.7188 L1146,1175.7188 M1133,1194.7188 L1120,1209.7188 M1133,1194.7188 L1146,1209.7188 " fill="none" filter="url(#f19m7n96chqvhk)" style="stroke: #A80036; stroke-width: 1.5;"/><text fill="#000000" font-family="sans-serif" font-size="14" lengthAdjust="spacingAndGlyphs" textLength="128" x="1069" y="1228.2139">Sistema de Correo</text><text fill="#000000" font-family="sans-serif" font-size="14" font-style="italic" lengthAdjust="spacingAndGlyphs" textLength="69" x="1098.5" y="1146.917">«System»</text><path d="M1654,299.4219 L1654,320.9219 L1591.35,324.9219 L1654,328.9219 L1654,349.9531 A10,10 0 0 0 1664,359.9531 L1838,359.9531 A10,10 0 0 0 1848,349.9531 L1848,299.4219 L1838,289.4219 L1664,289.4219 A10,10 0 0 0 1654,299.4219 " fill="#FBFB77" filter="url(#f19m7n96chqvhk)" style="stroke: #A80036; stroke-width: 1.0;"/><path d="M1838,289.4219 L1838,294.4219 A5,5 0 0 0 1843,299.4219 L1848,299.4219 L1838,289.4219 " fill="#FBFB77" style="stroke: #A80036; stroke-width: 1.0;"/><text fill="#000000" font-family="sans-serif" font-size="13" font-weight="bold" lengthAdjust="spacingAndGlyphs" textLength="145" x="1660" y="306.4888">NOTA TÉCNICA ERS:</text><text fill="#000000" font-family="sans-serif" font-size="13" lengthAdjust="spacingAndGlyphs" textLength="169" x="1660" y="321.6216">Restringe acciones críticas</text><text fill="#000000" font-family="sans-serif" font-size="13" lengthAdjust="spacingAndGlyphs" textLength="162" x="1660" y="336.7544">solo a usuarios con email</text><text fill="#000000" font-family="sans-serif" font-size="13" lengthAdjust="spacingAndGlyphs" textLength="122" x="1660" y="351.8872">validado por token.</text><!--MD5=[5ee28319e45be34845b0f256fe83a9ce]
link Searcher to Guest--><path d="M120.75,385.7619 C143.91,408.4219 172.68,436.5619 196.1,459.4719 " fill="none" id="Searcher-&gt;Guest" style="stroke: #A80036; stroke-width: 1.0;"/><polygon fill="none" points="201.21,454.6719,210.61,473.6619,191.42,464.6819,201.21,454.6719" style="stroke: #A80036; stroke-width: 1.0;"/><!--MD5=[51330efd55007afea44717b44ed7e01d]
link Employer to Guest--><path d="M114.71,236.8319 C126.85,251.9419 139.9,269.6219 150,286.9219 C179.08,336.7319 203.54,397.7919 219.5,442.0919 " fill="none" id="Employer-&gt;Guest" style="stroke: #A80036; stroke-width: 1.0;"/><polygon fill="none" points="226.18,439.9819,226.23,461.1719,212.98,444.6319,226.18,439.9819" style="stroke: #A80036; stroke-width: 1.0;"/><!--MD5=[69b7c8d29327eb11d9cf3d843250baf3]
link Admin to Guest--><path d="M93.53,910.2819 C121.96,830.7419 185.07,654.1919 218.22,561.4519 " fill="none" id="Admin-&gt;Guest" style="stroke: #A80036; stroke-width: 1.0;"/><polygon fill="none" points="211.68,558.9419,225.01,542.4719,224.87,563.6519,211.68,558.9419" style="stroke: #A80036; stroke-width: 1.0;"/><!--MD5=[2ffa435333c8f68025a7076ebd5f65e5]
link Guest to UC_Reg--><path d="M270.1,513.6419 C311.56,530.6119 388.36,562.0719 434.05,580.7919 " fill="none" id="Guest-UC_Reg" style="stroke: #A80036; stroke-width: 1.0;"/><!--MD5=[a0b9cd09cc67441be80fb366e5b2a356]
link Guest to UC_Login--><path d="M252.46,542.4319 C262.44,571.4919 280.11,609.1919 309,630.9219 C337.33,652.2319 376.03,660.6619 408.5,663.6719 " fill="none" id="Guest-UC_Login" style="stroke: #A80036; stroke-width: 1.0;"/><!--MD5=[3c60312cd9e49501e6725b4bf496b2e2]
link Guest to UC_Search--><path d="M270.1,497.6819 C305.91,492.3819 368.09,483.1719 413.82,476.3919 " fill="none" id="Guest-UC_Search" style="stroke: #A80036; stroke-width: 1.0;"/><!--MD5=[6231b6372aabb01b3f42dc57f3c8eff9]
link Searcher to UC_Profile--><path d="M150.44,344.9219 C215.92,344.9219 313.06,344.9219 383.24,344.9219 " fill="none" id="Searcher-UC_Profile" style="stroke: #A80036; stroke-width: 1.0;"/><!--MD5=[9da6c482d640a9b2ef0e468bd74f89d3]
link Searcher to UC_Apply--><path d="M150.15,325.1019 C160.12,322.7619 170.28,320.6119 180,318.9219 C236.73,309.0419 251.48,309.5919 309,306.9219 C588.26,293.9619 659.6,282.5819 938,307.9219 C985.04,312.2019 1037.73,322.0419 1076.32,330.2019 " fill="none" id="Searcher-UC_Apply" style="stroke: #A80036; stroke-width: 1.0;"/><!--MD5=[739c2960eda8d866ce8c5d2c3bd06036]
link Employer to UC_Jobs--><path d="M115.26,169.4819 C146.55,149.3019 193.8,124.9219 239.5,124.9219 C239.5,124.9219 239.5,124.9219 831.5,124.9219 C909.31,124.9219 997.77,135.9919 1058.46,145.3019 " fill="none" id="Employer-UC_Jobs" style="stroke: #A80036; stroke-width: 1.0;"/><!--MD5=[46d9ea00051dc892bed58860cf779dd7]
link Employer to UC_ViewApp--><path d="M115.02,195.9219 C147.54,195.9219 196.73,195.9219 239.5,195.9219 C239.5,195.9219 239.5,195.9219 831.5,195.9219 C915.83,195.9219 1012.54,210.0719 1072.95,220.6319 " fill="none" id="Employer-UC_ViewApp" style="stroke: #A80036; stroke-width: 1.0;"/><!--MD5=[813f5eb67c6487570499e0485e69000a]
link Admin to UC_Mod--><path d="M125.51,955.1919 C192.43,961.3419 316.61,972.7419 396.44,980.0719 " fill="none" id="Admin-UC_Mod" style="stroke: #A80036; stroke-width: 1.0;"/><!--MD5=[9d4a3919c31172e5005963c184c3bf85]
link Admin to UC_Users--><path d="M125.79,966.8519 C172.03,982.2819 244.93,1005.8119 309,1022.9219 C342.54,1031.8819 380.4,1040.3819 411.08,1046.8719 " fill="none" id="Admin-UC_Users" style="stroke: #A80036; stroke-width: 1.0;"/><!--MD5=[43160fccfb057bb54e3f7ac324203934]
link Admin to UC_Stats--><path d="M125.51,947.0019 C197.3,940.9619 334.98,929.3719 413.11,922.7919 " fill="none" id="Admin-UC_Stats" style="stroke: #A80036; stroke-width: 1.0;"/><!--MD5=[5e9bbe1128f98813b04e700380728c36]
link UC_Reg to UC_SendEmail--><path d="M528.89,607.3119 C554.57,613.2319 585.2,621.2519 612,630.9219 C674.68,653.5419 743.51,688.2519 786.61,711.2619 " fill="none" id="UC_Reg-&gt;UC_SendEmail" style="stroke: #A80036; stroke-width: 1.0; stroke-dasharray: 7.0,7.0;"/><polygon fill="#A80036" points="791.21,713.7319,785.1551,705.9641,786.7994,711.3767,781.3868,713.021,791.21,713.7319" style="stroke: #A80036; stroke-width: 1.0;"/><text fill="#000000" font-family="sans-serif" font-size="13" lengthAdjust="spacingAndGlyphs" textLength="61" x="653" y="643.9888">«include»</text><!--MD5=[997c5cbafd7a94169b80d79e3fad01a3]
link UC_Recov to UC_SendEmail--><path d="M563.42,734.9219 C618.08,734.9219 687.42,734.9219 741.61,734.9219 " fill="none" id="UC_Recov-&gt;UC_SendEmail" style="stroke: #A80036; stroke-width: 1.0; stroke-dasharray: 7.0,7.0;"/><polygon fill="#A80036" points="746.81,734.9219,737.81,730.9219,741.81,734.9219,737.81,738.9219,746.81,734.9219" style="stroke: #A80036; stroke-width: 1.0;"/><text fill="#000000" font-family="sans-serif" font-size="13" lengthAdjust="spacingAndGlyphs" textLength="61" x="653" y="730.9888">«include»</text><!--MD5=[952f40a420629e757dc9b9a8230732c3]
link UC_SendEmail to Mail--><path d="M847.44,758.6919 C894.7,829.1519 1034.74,1037.9219 1099.04,1133.7919 " fill="none" id="UC_SendEmail-Mail" style="stroke: #A80036; stroke-width: 1.0;"/><!--MD5=[738f65ab8db7bf54a459b3035efbee51]
reverse link UC_Search to UC_Filter--><path d="M544.36,471.3219 C606.05,474.2619 694.83,478.5019 756.89,481.4619 " fill="none" id="UC_Search&lt;-UC_Filter" style="stroke: #A80036; stroke-width: 1.0; stroke-dasharray: 7.0,7.0;"/><polygon fill="#A80036" points="539.22,471.0819,548.0147,475.515,544.2141,471.3251,548.404,467.5245,539.22,471.0819" style="stroke: #A80036; stroke-width: 1.0;"/><text fill="#000000" font-family="sans-serif" font-size="13" lengthAdjust="spacingAndGlyphs" textLength="60" x="653.5" y="473.9888">«extend»</text><!--MD5=[d3b1a3df598aa1d4e9f515f62281da15]
link UC_Search to UC_View--><path d="M529.49,459.2119 C590.15,449.8519 686.84,434.9319 753.99,424.5719 " fill="none" id="UC_Search-&gt;UC_View" style="stroke: #A80036; stroke-width: 1.0; stroke-dasharray: 7.0,7.0;"/><polygon fill="#A80036" points="759.18,423.7719,749.6781,421.1807,754.2376,424.5289,750.8894,429.0885,759.18,423.7719" style="stroke: #A80036; stroke-width: 1.0;"/><text fill="#000000" font-family="sans-serif" font-size="13" lengthAdjust="spacingAndGlyphs" textLength="61" x="653" y="426.9888">«include»</text><!--MD5=[c44152d34d4e98802ea1c5128ecc087e]
reverse link UC_View to UC_Apply--><path d="M896.01,397.8919 C949.84,385.3519 1025.75,367.6719 1076.81,355.7819 " fill="none" id="UC_View&lt;-UC_Apply" style="stroke: #A80036; stroke-width: 1.0; stroke-dasharray: 7.0,7.0;"/><polygon fill="#A80036" points="890.87,399.0919,900.5457,400.9305,895.7378,397.9499,898.7185,393.142,890.87,399.0919" style="stroke: #A80036; stroke-width: 1.0;"/><text fill="#000000" font-family="sans-serif" font-size="13" lengthAdjust="spacingAndGlyphs" textLength="60" x="947" y="369.9888">«extend»</text><!--MD5=[063ebea0f4974dab4bba1898c0a0b7bd]
reverse link UC_Profile to UC_CV--><path d="M565.71,344.1419 C626.07,343.6319 703.56,342.9819 758.91,342.5119 " fill="none" id="UC_Profile&lt;-UC_CV" style="stroke: #A80036; stroke-width: 1.0; stroke-dasharray: 7.0,7.0;"/><polygon fill="#A80036" points="560.67,344.1819,569.704,348.1046,565.6698,344.139,569.6354,340.1049,560.67,344.1819" style="stroke: #A80036; stroke-width: 1.0;"/><text fill="#000000" font-family="sans-serif" font-size="13" lengthAdjust="spacingAndGlyphs" textLength="60" x="653.5" y="338.9888">«extend»</text><!--MD5=[465fb1d119dd8ecd1003358d0afe06b1]
reverse link UC_Jobs to UC_Close--><path d="M1231.23,156.7619 C1285.8,156.1119 1352.54,155.3119 1401.4,154.7319 " fill="none" id="UC_Jobs&lt;-UC_Close" style="stroke: #A80036; stroke-width: 1.0; stroke-dasharray: 7.0,7.0;"/><polygon fill="#A80036" points="1225.98,156.8219,1235.0251,160.7188,1230.9797,156.7647,1234.9337,152.7193,1225.98,156.8219" style="stroke: #A80036; stroke-width: 1.0;"/><text fill="#000000" font-family="sans-serif" font-size="13" lengthAdjust="spacingAndGlyphs" textLength="60" x="1257.5" y="151.9888">«extend»</text><!--MD5=[9025f2b5740b31ff0746b26579d06ba2]
link UC_ViewApp to UC_Download--><path d="M1210.02,230.7919 C1256.86,230.0919 1317.48,229.1819 1368.29,228.4219 " fill="none" id="UC_ViewApp-&gt;UC_Download" style="stroke: #A80036; stroke-width: 1.0; stroke-dasharray: 7.0,7.0;"/><polygon fill="#A80036" points="1373.49,228.3519,1364.4228,224.5067,1368.4907,228.4376,1364.5599,232.5056,1373.49,228.3519" style="stroke: #A80036; stroke-width: 1.0;"/><text fill="#000000" font-family="sans-serif" font-size="13" lengthAdjust="spacingAndGlyphs" textLength="61" x="1257" y="225.9888">«include»</text><!--MD5=[35d76a540bc45d6bb0b13eb240dede53]
link UC_Apply to UC_Check--><path d="M1211.44,340.6019 C1244.58,339.4519 1283.7,337.8819 1319,335.9219 C1329.19,335.3519 1339.77,334.7019 1350.38,334.0119 " fill="none" id="UC_Apply-&gt;UC_Check" style="stroke: #A80036; stroke-width: 1.0; stroke-dasharray: 7.0,7.0;"/><polygon fill="#A80036" points="1355.59,333.6619,1346.3464,330.2624,1350.6008,333.9907,1346.8725,338.2451,1355.59,333.6619" style="stroke: #A80036; stroke-width: 1.0;"/><text fill="#000000" font-family="sans-serif" font-size="13" lengthAdjust="spacingAndGlyphs" textLength="61" x="1257" y="331.9888">«include»</text><!--MD5=[eac1c4ffac89215351ec0ed066a90125]
link UC_Jobs to UC_Check--><path d="M1199.84,172.6519 C1213.15,178.1419 1226.09,185.6619 1236,195.9219 C1255.53,216.1419 1236.04,236.1319 1256,255.9219 C1284,283.6819 1323.26,300.2819 1360.45,310.2019 " fill="none" id="UC_Jobs-&gt;UC_Check" style="stroke: #A80036; stroke-width: 1.0; stroke-dasharray: 7.0,7.0;"/><polygon fill="#A80036" points="1365.45,311.4919,1357.7438,305.3589,1360.6104,310.2356,1355.7337,313.1022,1365.45,311.4919" style="stroke: #A80036; stroke-width: 1.0;"/><text fill="#000000" font-family="sans-serif" font-size="13" lengthAdjust="spacingAndGlyphs" textLength="61" x="1257" y="251.9888">«include»</text><text fill="#000000" font-family="sans-serif" font-size="14" lengthAdjust="spacingAndGlyphs" textLength="317" x="774.5" y="1254.917">Relación completa de Casos de Uso y Actores</text><text fill="#888888" font-family="sans-serif" font-size="10" lengthAdjust="spacingAndGlyphs" textLength="209" x="828.5" y="1267.501">Versión 1.0 - Elaborado por Gabriel Moreno</text><!--MD5=[c93915796527067e6f16f4e3af471ed7]
@startuml
title <size:20>Sistema de Banco de Datos CJDB</size>
header Proyecto CJDB
footer Versión 1.0 - Elaborado por Gabriel Moreno
caption Relación completa de Casos de Uso y Actores

left to right direction
skinparam packageStyle rectangle
skinparam roundcorner 20

actor "Visitante" as Guest
actor "Buscador de Empleo" as Searcher
actor "Empleador" as Employer
actor "Administrador" as Admin
actor "Sistema de Correo" as Mail <<System>>

Searcher - -|> Guest
Employer - -|> Guest
Admin - -|> Guest

rectangle "Plataforma Banco de Datos CJDB" {
    
    package "Módulo: Identidad (RF-01)" {
        usecase "Registrar Usuario" as UC_Reg
        usecase "Iniciar Sesión" as UC_Login
        usecase "Recuperar Contraseña" as UC_Recov
        usecase "Validar Token Email" as UC_Valid
        usecase "Enviar Notificación" as UC_SendEmail <<Internal>>
    }

    package "Módulo: Búsqueda y Perfil (RF-03/04)" {
        usecase "Buscar Ofertas" as UC_Search
        usecase "Filtrar Resultados" as UC_Filter
        usecase "Ver Detalle de Oferta" as UC_View
        usecase "Gestionar Perfil Digital" as UC_Profile
        usecase "Cargar CV (PDF)" as UC_CV
        usecase "Postular a Vacante" as UC_Apply
    }

    package "Módulo: Gestión Laboral (RF-02)" {
        usecase "Publicar / Editar Ofertas" as UC_Jobs
        usecase "Cerrar Vacante" as UC_Close
        usecase "Ver Postulaciones" as UC_ViewApp
        usecase "Descargar CV Candidato" as UC_Download
    }

    package "Módulo: Administración (RF-05)" {
        usecase "Moderar Contenido" as UC_Mod
        usecase "Gestionar Usuarios" as UC_Users
        usecase "Ver Métricas" as UC_Stats
    }

    usecase "Verificar Verificación de Cuenta" as UC_Check <<Abstract>>
}

Guest - - UC_Reg
Guest - - UC_Login
Guest - - UC_Search

Searcher - - UC_Profile
Searcher - - UC_Apply

Employer - - UC_Jobs
Employer - - UC_ViewApp

Admin - - UC_Mod
Admin - - UC_Users
Admin - - UC_Stats

UC_Reg ..> UC_SendEmail : <<include>>
UC_Recov ..> UC_SendEmail : <<include>>
UC_SendEmail - - Mail

UC_Search <.. UC_Filter : <<extend>>
UC_Search ..> UC_View : <<include>>
UC_View <.. UC_Apply : <<extend>>
UC_Profile <.. UC_CV : <<extend>>

UC_Jobs <.. UC_Close : <<extend>>
UC_ViewApp ..> UC_Download : <<include>>

UC_Apply ..> UC_Check : <<include>>
UC_Jobs ..> UC_Check : <<include>>

note right of UC_Check
  **NOTA TÉCNICA ERS:**
  Restringe acciones críticas 
  solo a usuarios con email 
  validado por token.
end note

@enduml

PlantUML version 1.2020.02(Sun Mar 01 06:22:07 VET 2020)
(GPL source distribution)
Java Runtime: OpenJDK Runtime Environment
JVM: OpenJDK 64-Bit Server VM
Java Version: 17.0.18+8-Debian-1deb12u1
Operating System: Linux
Default Encoding: UTF-8
Language: es
Country: VE
--></g></svg>