<?xml version="1.0" encoding="UTF-8" standalone="no"?><svg xmlns="http://www.w3.org/2000/svg" xmlns:xlink="http://www.w3.org/1999/xlink" contentScriptType="application/ecmascript" contentStyleType="text/css" height="602px" preserveAspectRatio="none" style="width:1035px;height:602px;" version="1.1" viewBox="0 0 1035 602" width="1035px" zoomAndPan="magnify"><defs><filter height="300%" id="f15ih8baqdpkao" width="300%" x="-1" y="-1"><feGaussianBlur result="blurOut" stdDeviation="2.0"/><feColorMatrix in="blurOut" result="blurOut2" type="matrix" values="0 0 0 0 0 0 0 0 0 0 0 0 0 0 0 0 0 0 .4 0"/><feOffset dx="4.0" dy="4.0" in="blurOut2" result="blurOut3"/><feBlend in="SourceGraphic" in2="blurOut3" mode="normal"/></filter></defs><g><text fill="#888888" font-family="sans-serif" font-size="10" lengthAdjust="spacingAndGlyphs" textLength="73" x="950" y="9.2822">Proyecto CJDB</text><text fill="#000000" font-family="sans-serif" font-size="18" lengthAdjust="spacingAndGlyphs" textLength="342" x="340.5" y="28.3486">Módulo 4.1: Autenticación y Seguridad</text><!--MD5=[9a36ec8286e0a6404ec5d1f85c8dc34f]
cluster Módulo Auth--><rect fill="#FFFFFF" filter="url(#f15ih8baqdpkao)" height="365" style="stroke: #000000; stroke-width: 1.5;" width="584.5" x="232" y="57.0938"/><text fill="#000000" font-family="sans-serif" font-size="14" font-weight="bold" lengthAdjust="spacingAndGlyphs" textLength="99" x="474.75" y="72.0889">Módulo Auth</text><ellipse cx="338.8797" cy="109.2697" fill="#FEFECE" filter="url(#f15ih8baqdpkao)" rx="73.8797" ry="17.1759" style="stroke: #A80036; stroke-width: 1.5;"/><text fill="#000000" font-family="sans-serif" font-size="14" lengthAdjust="spacingAndGlyphs" textLength="116" x="280.8797" y="113.9181">Registrar Cuenta</text><ellipse cx="339.2036" cy="176.2345" fill="#FEFECE" filter="url(#f15ih8baqdpkao)" rx="63.7036" ry="15.1407" style="stroke: #A80036; stroke-width: 1.5;"/><text fill="#000000" font-family="sans-serif" font-size="14" lengthAdjust="spacingAndGlyphs" textLength="90" x="294.2036" y="180.8829">Iniciar Sesión</text><ellipse cx="338.9996" cy="247.1937" fill="#FEFECE" filter="url(#f15ih8baqdpkao)" rx="90.9996" ry="20.5999" style="stroke: #A80036; stroke-width: 1.5;"/><text fill="#000000" font-family="sans-serif" font-size="14" lengthAdjust="spacingAndGlyphs" textLength="156" x="260.9996" y="251.8421">Recuperar Contraseña</text><ellipse cx="338.9883" cy="321.1914" fill="#FEFECE" filter="url(#f15ih8baqdpkao)" rx="80.9883" ry="18.5977" style="stroke: #A80036; stroke-width: 1.5;"/><text fill="#000000" font-family="sans-serif" font-size="14" lengthAdjust="spacingAndGlyphs" textLength="133" x="272.4883" y="325.8398">Validar Token Email</text><ellipse cx="338.8237" cy="389.9585" fill="#FEFECE" filter="url(#f15ih8baqdpkao)" rx="64.8237" ry="15.3647" style="stroke: #A80036; stroke-width: 1.5;"/><text fill="#000000" font-family="sans-serif" font-size="14" lengthAdjust="spacingAndGlyphs" textLength="93" x="292.3237" y="394.6069">Cerrar Sesión</text><ellipse cx="684.2611" cy="179.146" fill="#FEFECE" filter="url(#f15ih8baqdpkao)" rx="115.7611" ry="25.5522" style="stroke: #A80036; stroke-width: 1.5;"/><text fill="#000000" font-family="sans-serif" font-size="14" font-style="italic" lengthAdjust="spacingAndGlyphs" textLength="70" x="649.2611" y="170.5045">«Internal»</text><text fill="#000000" font-family="sans-serif" font-size="14" lengthAdjust="spacingAndGlyphs" textLength="196" x="586.2611" y="186.8014">Enviar Correo de Verificación</text><!--MD5=[9eecb807d8a7c1ba44cb916f191401d3]
entity Guest--><ellipse cx="95.5" cy="147.0938" fill="#FEFECE" filter="url(#f15ih8baqdpkao)" rx="8" ry="8" style="stroke: #A80036; stroke-width: 1.5;"/><path d="M95.5,155.0938 L95.5,182.0938 M82.5,163.0938 L108.5,163.0938 M95.5,182.0938 L82.5,197.0938 M95.5,182.0938 L108.5,197.0938 " fill="none" filter="url(#f15ih8baqdpkao)" style="stroke: #A80036; stroke-width: 1.5;"/><text fill="#000000" font-family="sans-serif" font-size="14" lengthAdjust="spacingAndGlyphs" textLength="179" x="6" y="215.5889">Visitante (No Autenticado)</text><!--MD5=[b0178da15e77bd2872e27034dc3dd9f3]
entity Searcher--><ellipse cx="95.5" cy="266.0938" fill="#FEFECE" filter="url(#f15ih8baqdpkao)" rx="8" ry="8" style="stroke: #A80036; stroke-width: 1.5;"/><path d="M95.5,274.0938 L95.5,301.0938 M82.5,282.0938 L108.5,282.0938 M95.5,301.0938 L82.5,316.0938 M95.5,301.0938 L108.5,316.0938 " fill="none" filter="url(#f15ih8baqdpkao)" style="stroke: #A80036; stroke-width: 1.5;"/><text fill="#000000" font-family="sans-serif" font-size="14" lengthAdjust="spacingAndGlyphs" textLength="144" x="23.5" y="334.5889">Buscador de Empleo</text><!--MD5=[e3d7fad956befb23f1a8093c12fc44a0]
entity Employer--><ellipse cx="95.5" cy="382.0938" fill="#FEFECE" filter="url(#f15ih8baqdpkao)" rx="8" ry="8" style="stroke: #A80036; stroke-width: 1.5;"/><path d="M95.5,390.0938 L95.5,417.0938 M82.5,398.0938 L108.5,398.0938 M95.5,417.0938 L82.5,432.0938 M95.5,417.0938 L108.5,432.0938 " fill="none" filter="url(#f15ih8baqdpkao)" style="stroke: #A80036; stroke-width: 1.5;"/><text fill="#000000" font-family="sans-serif" font-size="14" lengthAdjust="spacingAndGlyphs" textLength="74" x="58.5" y="450.5889">Empleador</text><!--MD5=[97ab183161fd5d1db7fba7485cf76add]
entity Admin--><ellipse cx="95.5" cy="498.0938" fill="#FEFECE" filter="url(#f15ih8baqdpkao)" rx="8" ry="8" style="stroke: #A80036; stroke-width: 1.5;"/><path d="M95.5,506.0938 L95.5,533.0938 M82.5,514.0938 L108.5,514.0938 M95.5,533.0938 L82.5,548.0938 M95.5,533.0938 L108.5,548.0938 " fill="none" filter="url(#f15ih8baqdpkao)" style="stroke: #A80036; stroke-width: 1.5;"/><text fill="#000000" font-family="sans-serif" font-size="14" lengthAdjust="spacingAndGlyphs" textLength="95" x="48" y="566.5889">Administrador</text><!--MD5=[d6e75f2a2d9b7b2a48fe909117c6250f]
entity Mail--><ellipse cx="941" cy="155.8906" fill="#FEFECE" filter="url(#f15ih8baqdpkao)" rx="8" ry="8" style="stroke: #A80036; stroke-width: 1.5;"/><path d="M941,163.8906 L941,190.8906 M928,171.8906 L954,171.8906 M941,190.8906 L928,205.8906 M941,190.8906 L954,205.8906 " fill="none" filter="url(#f15ih8baqdpkao)" style="stroke: #A80036; stroke-width: 1.5;"/><text fill="#000000" font-family="sans-serif" font-size="14" lengthAdjust="spacingAndGlyphs" textLength="128" x="877" y="224.3857">Sistema de Correo</text><text fill="#000000" font-family="sans-serif" font-size="14" font-style="italic" lengthAdjust="spacingAndGlyphs" textLength="69" x="906.5" y="143.0889">«System»</text><path d="M553,438.5938 L553,493.9922 L816,493.9922 L816,448.5938 L806,438.5938 L553,438.5938 " fill="#FBFB77" filter="url(#f15ih8baqdpkao)" style="stroke: #A80036; stroke-width: 1.0;"/><path d="M806,438.5938 L806,448.5938 L816,448.5938 L806,438.5938 " fill="#FBFB77" style="stroke: #A80036; stroke-width: 1.0;"/><text fill="#000000" font-family="sans-serif" font-size="13" font-weight="bold" lengthAdjust="spacingAndGlyphs" textLength="79" x="559" y="455.6606">Transición:</text><text fill="#000000" font-family="sans-serif" font-size="13" lengthAdjust="spacingAndGlyphs" textLength="203" x="559" y="470.7935">Al validar el token o hacer login,</text><text fill="#000000" font-family="sans-serif" font-size="13" lengthAdjust="spacingAndGlyphs" textLength="242" x="559" y="485.9263">el 'Visitante' se convierte en 'Usuario'.</text><!--MD5=[2ffa435333c8f68025a7076ebd5f65e5]
link Guest to UC_Reg--><path d="M185.05,152.7938 C221.27,142.4438 261.65,130.9138 291.82,122.2838 " fill="none" id="Guest-UC_Reg" style="stroke: #A80036; stroke-width: 1.0;"/><!--MD5=[a0b9cd09cc67441be80fb366e5b2a356]
link Guest to UC_Login--><path d="M185.05,177.3637 C215.07,177.1137 247.96,176.8438 275.52,176.6137 " fill="none" id="Guest-UC_Login" style="stroke: #A80036; stroke-width: 1.0;"/><!--MD5=[cd23b3c49846b71eb5f050b7fcabe87d]
link Guest to UC_Recov--><path d="M185.05,203.3938 C217.36,212.6237 252.99,222.8037 281.72,231.0138 " fill="none" id="Guest-UC_Recov" style="stroke: #A80036; stroke-width: 1.0;"/><!--MD5=[4e47cf70684ca26ff4a6846563dd4f11]
link Guest to UC_Valid--><path d="M159.96,218.7738 C168.66,225.2238 177.25,232.0838 185,239.0938 C204.87,257.0738 201.68,270.2538 224,285.0938 C240.07,295.7838 259.51,303.4538 277.75,308.8938 " fill="none" id="Guest-UC_Valid" style="stroke: #A80036; stroke-width: 1.0;"/><!--MD5=[ef65751a98b69784802eab957fe517f6]
link Searcher to UC_Logout--><path d="M167.79,333.0638 C185.89,341.5238 205.46,350.0938 224,357.0938 C246.46,365.5638 272.09,373.1638 293.35,378.9238 " fill="none" id="Searcher-UC_Logout" style="stroke: #A80036; stroke-width: 1.0;"/><!--MD5=[e60947c12b36222b5639474e1e386435]
link Employer to UC_Logout--><path d="M132.65,409.6538 C171.08,405.9938 232.46,400.1438 278.12,395.7938 " fill="none" id="Employer-UC_Logout" style="stroke: #A80036; stroke-width: 1.0;"/><!--MD5=[c83a763039a3b10b803bec628ac459ae]
link Admin to UC_Logout--><path d="M143.06,502.2938 C193.78,473.1038 273,427.5037 313.04,404.4638 " fill="none" id="Admin-UC_Logout" style="stroke: #A80036; stroke-width: 1.0;"/><!--MD5=[5e374d3dead7f974ba2e36f4d8e81ce3]
link UC_Reg to UC_SendMail--><path d="M394.81,120.2638 C448.24,131.1538 530.42,147.8938 593.45,160.7437 " fill="none" id="UC_Reg-&gt;UC_SendMail" style="stroke: #A80036; stroke-width: 1.0; stroke-dasharray: 7.0,7.0;"/><polygon fill="#A80036" points="598.72,161.8138,590.7016,156.0949,593.821,160.8139,589.1019,163.9333,598.72,161.8138" style="stroke: #A80036; stroke-width: 1.0;"/><text fill="#000000" font-family="sans-serif" font-size="13" lengthAdjust="spacingAndGlyphs" textLength="61" x="461" y="130.1606">«include»</text><!--MD5=[e36dc0a2d1ef364a93818b67ee066f7d]
link UC_Recov to UC_SendMail--><path d="M407.86,233.6638 C460.72,223.1938 534.61,208.5738 592.58,197.0938 " fill="none" id="UC_Recov-&gt;UC_SendMail" style="stroke: #A80036; stroke-width: 1.0; stroke-dasharray: 7.0,7.0;"/><polygon fill="#A80036" points="597.78,196.0638,588.1752,193.885,592.8749,197.0334,589.7265,201.7331,597.78,196.0638" style="stroke: #A80036; stroke-width: 1.0;"/><text fill="#000000" font-family="sans-serif" font-size="13" lengthAdjust="spacingAndGlyphs" textLength="61" x="461" y="207.1606">«include»</text><!--MD5=[a1aabe95b606cbc79735d8502911b13c]
link UC_SendMail to Mail--><path d="M800.84,179.0938 C827.01,179.0938 853.86,179.0938 876.91,179.0938 " fill="none" id="UC_SendMail-Mail" style="stroke: #A80036; stroke-width: 1.0;"/><!--MD5=[7dec63e3e7ac51a062087a7c1edb700b]
link UC_Valid to GMN24--><path d="M382.06,336.8538 C397.31,342.8438 414.57,349.9538 430,357.0938 C486.12,383.0538 496.19,397.6938 553,422.0938 C566.51,427.8938 581.06,433.4538 595.37,438.5438 " fill="none" id="UC_Valid-GMN24" style="stroke: #A80036; stroke-width: 1.0; stroke-dasharray: 7.0,7.0;"/><text fill="#888888" font-family="sans-serif" font-size="10" lengthAdjust="spacingAndGlyphs" textLength="186" x="418.5" y="588.876">Ref: ERS RF-01 - Gestión de Identidad</text><!--MD5=[98080d8b6c04fc00b8a81520502e65d4]
@startuml
title <size:18>Módulo 4.1: Autenticación y Seguridad</size>
header Proyecto CJDB
footer Ref: ERS RF-01 - Gestión de Identidad

left to right direction
skinparam packageStyle rectangle

actor "Visitante (No Autenticado)" as Guest
actor "Buscador de Empleo" as Searcher
actor "Empleador" as Employer
actor "Administrador" as Admin
actor "Sistema de Correo" as Mail <<System>>

rectangle "Módulo Auth" {
  usecase "Registrar Cuenta" as UC_Reg
  usecase "Iniciar Sesión" as UC_Login
  usecase "Recuperar Contraseña" as UC_Recov
  usecase "Validar Token Email" as UC_Valid
  
  usecase "Cerrar Sesión" as UC_Logout
  
  usecase "Enviar Correo de Verificación" as UC_SendMail <<Internal>>
}

Guest - - UC_Reg
Guest - - UC_Login
Guest - - UC_Recov
Guest - - UC_Valid

Searcher - - UC_Logout
Employer - - UC_Logout
Admin - - UC_Logout

UC_Reg ..> UC_SendMail : <<include>>
UC_Recov ..> UC_SendMail : <<include>>
UC_SendMail - - Mail

note right of UC_Valid
  **Transición:**
  Al validar el token o hacer login,
  el 'Visitante' se convierte en 'Usuario'.
end note

@enduml

PlantUML version 1.2020.02(Sun Mar 01 06:22:07 VET 2020)
(GPL source distribution)
Java Runtime: OpenJDK Runtime Environment
JVM: OpenJDK 64-Bit Server VM
Java Version: 17.0.18+8-Debian-1deb12u1
Operating System: Linux
Default Encoding: UTF-8
Language: es
Country: VE
--></g></svg>