<?xml version="1.0" encoding="UTF-8" standalone="no"?><svg xmlns="http://www.w3.org/2000/svg" xmlns:xlink="http://www.w3.org/1999/xlink" contentScriptType="application/ecmascript" contentStyleType="text/css" height="384px" preserveAspectRatio="none" style="width:1778px;height:384px;" version="1.1" viewBox="0 0 1778 384" width="1778px" zoomAndPan="magnify"><defs><filter height="300%" id="f7ps5imtdcsa" width="300%" x="-1" y="-1"><feGaussianBlur result="blurOut" stdDeviation="2.0"/><feColorMatrix in="blurOut" result="blurOut2" type="matrix" values="0 0 0 0 0 0 0 0 0 0 0 0 0 0 0 0 0 0 .4 0"/><feOffset dx="4.0" dy="4.0" in="blurOut2" result="blurOut3"/><feBlend in="SourceGraphic" in2="blurOut3" mode="normal"/></filter></defs><g><!--MD5=[89cca7d741880ff589fca1cbc8f9c3c4]
cluster CJDB--><rect fill="#FFFFFF" filter="url(#f7ps5imtdcsa)" height="237" style="stroke: #000000; stroke-width: 1.5;" width="1488" x="150" y="136"/><text fill="#000000" font-family="sans-serif" font-size="14" font-weight="bold" lengthAdjust="spacingAndGlyphs" textLength="36" x="876" y="150.9951">CJDB</text><ellipse cx="393.8614" cy="193.5236" fill="#FEFECE" filter="url(#f7ps5imtdcsa)" rx="58.8614" ry="14.5236" style="stroke: #A80036; stroke-width: 1.5;"/><text fill="#000000" font-family="sans-serif" font-size="14" lengthAdjust="spacingAndGlyphs" textLength="79" x="354.3614" y="198.1721">Registrarse</text><ellipse cx="855.0203" cy="193.3041" fill="#FEFECE" filter="url(#f7ps5imtdcsa)" rx="99.5203" ry="22.3041" style="stroke: #A80036; stroke-width: 1.5;"/><text fill="#000000" font-family="sans-serif" font-size="14" lengthAdjust="spacingAndGlyphs" textLength="175" x="767.5203" y="197.9525">Validar correo electrónico</text><ellipse cx="1052.8339" cy="193.5668" fill="#FEFECE" filter="url(#f7ps5imtdcsa)" rx="63.3339" ry="15.0668" style="stroke: #A80036; stroke-width: 1.5;"/><text fill="#000000" font-family="sans-serif" font-size="14" lengthAdjust="spacingAndGlyphs" textLength="89" x="1008.3339" y="198.2152">Iniciar sesión</text><ellipse cx="894.9496" cy="333.4899" fill="#FEFECE" filter="url(#f7ps5imtdcsa)" rx="105.4496" ry="23.4899" style="stroke: #A80036; stroke-width: 1.5;"/><text fill="#000000" font-family="sans-serif" font-size="14" lengthAdjust="spacingAndGlyphs" textLength="188" x="800.9496" y="338.1384">Gestionar perfil empresarial</text><ellipse cx="233.2254" cy="193.7451" fill="#FEFECE" filter="url(#f7ps5imtdcsa)" rx="66.7254" ry="15.7451" style="stroke: #A80036; stroke-width: 1.5;"/><text fill="#000000" font-family="sans-serif" font-size="14" lengthAdjust="spacingAndGlyphs" textLength="98" x="184.2254" y="198.3935">Publicar oferta</text><path d="M488,181 L488,206.1328 L720,206.1328 L720,191 L710,181 L488,181 " fill="#FBFB77" filter="url(#f7ps5imtdcsa)" style="stroke: #A80036; stroke-width: 1.0;"/><path d="M710,181 L710,191 L720,191 L710,181 " fill="#FBFB77" style="stroke: #A80036; stroke-width: 1.0;"/><text fill="#000000" font-family="sans-serif" font-size="13" lengthAdjust="spacingAndGlyphs" textLength="211" x="494" y="198.0669">Requiere cuenta validada (RF-01)</text><ellipse cx="1213.1565" cy="193.6313" fill="#FEFECE" filter="url(#f7ps5imtdcsa)" rx="61.1565" ry="14.6313" style="stroke: #A80036; stroke-width: 1.5;"/><text fill="#000000" font-family="sans-serif" font-size="14" lengthAdjust="spacingAndGlyphs" textLength="83" x="1171.6565" y="198.2797">Editar oferta</text><ellipse cx="1371.2362" cy="193.3472" fill="#FEFECE" filter="url(#f7ps5imtdcsa)" rx="62.2362" ry="14.8472" style="stroke: #A80036; stroke-width: 1.5;"/><text fill="#000000" font-family="sans-serif" font-size="14" lengthAdjust="spacingAndGlyphs" textLength="86" x="1328.2362" y="197.9957">Cerrar oferta</text><ellipse cx="1545.1884" cy="193.3377" fill="#FEFECE" filter="url(#f7ps5imtdcsa)" rx="77.1884" ry="17.8377" style="stroke: #A80036; stroke-width: 1.5;"/><text fill="#000000" font-family="sans-serif" font-size="14" lengthAdjust="spacingAndGlyphs" textLength="124" x="1483.1884" y="197.9861">Ver postulaciones</text><!--MD5=[e4c5b6877294e03f5bb7957e4cc48e18]
entity Empleador--><ellipse cx="1153" cy="17.5" fill="#FEFECE" filter="url(#f7ps5imtdcsa)" rx="8" ry="8" style="stroke: #A80036; stroke-width: 1.5;"/><path d="M1153,25.5 L1153,52.5 M1140,33.5 L1166,33.5 M1153,52.5 L1140,67.5 M1153,52.5 L1166,67.5 " fill="none" filter="url(#f7ps5imtdcsa)" style="stroke: #A80036; stroke-width: 1.5;"/><text fill="#000000" font-family="sans-serif" font-size="14" lengthAdjust="spacingAndGlyphs" textLength="74" x="1116" y="85.9951">Empleador</text><!--MD5=[d6e75f2a2d9b7b2a48fe909117c6250f]
entity Mail--><ellipse cx="70" cy="302.5" fill="#FEFECE" filter="url(#f7ps5imtdcsa)" rx="8" ry="8" style="stroke: #A80036; stroke-width: 1.5;"/><path d="M70,310.5 L70,337.5 M57,318.5 L83,318.5 M70,337.5 L57,352.5 M70,337.5 L83,352.5 " fill="none" filter="url(#f7ps5imtdcsa)" style="stroke: #A80036; stroke-width: 1.5;"/><text fill="#000000" font-family="sans-serif" font-size="14" lengthAdjust="spacingAndGlyphs" textLength="128" x="6" y="370.9951">Sistema de Correo</text><!--MD5=[4ee8576f9a638faf2691c030e5f27113]
link Empleador to Registrarse--><path d="M1115.62,50.98 C990.68,56.38 588.85,77.35 471,128 C443.92,139.64 419.04,164.02 405.25,179.25 " fill="none" id="Empleador-Registrarse" style="stroke: #A80036; stroke-width: 1.0;"/><!--MD5=[a6bf86b0a259ccee1a5c61fa5d95c918]
link Empleador to Validar correo electrónico--><path d="M1115.79,64.43 C1078.87,79.52 1020.88,103.99 972,128 C943.79,141.85 912.66,159.11 889.61,172.29 " fill="none" id="Empleador-Validar correo electrónico" style="stroke: #A80036; stroke-width: 1.0;"/><!--MD5=[e521752c02f82c026d9a9c175118e3f7]
link Empleador to Iniciar sesión--><path d="M1125.14,89.33 C1104.34,119.08 1077.12,158 1062.8,178.49 " fill="none" id="Empleador-Iniciar sesión" style="stroke: #A80036; stroke-width: 1.0;"/><!--MD5=[d5264a152262421ea472b8e7923f86e9]
link Empleador to Gestionar perfil empresarial--><path d="M1190.38,49.63 C1324.45,51.32 1766.65,68 1640,216 C1558.92,310.74 1185.97,328.99 1000.43,332.13 " fill="none" id="Empleador-Gestionar perfil empresarial" style="stroke: #A80036; stroke-width: 1.0;"/><!--MD5=[151d057446cdc13e70f433cc39f2347c]
link Empleador to Publicar oferta--><path d="M1116,50.3 C974.33,53.75 466.9,70 318,128 C289.52,139.09 262.44,162.68 246.79,178.05 " fill="none" id="Empleador-Publicar oferta" style="stroke: #A80036; stroke-width: 1.0;"/><!--MD5=[fcfc2de976c651660b8356a0c143a9b5]
link GMN15 to Publicar oferta--><path d="M588.08,180.77 C561.88,160.72 507.19,122.61 453.5,108.5 C402.78,95.17 384.83,90.71 335.5,108.5 C297.01,122.38 262.74,157.7 245.26,178.18 " fill="none" id="GMN15-Publicar oferta" style="stroke: #A80036; stroke-width: 1.0; stroke-dasharray: 7.0,7.0;"/><!--MD5=[4f579566f8e2c21d4897b4308bd8b9d5]
link Empleador to Editar oferta--><path d="M1169.71,89.33 C1182.27,119.25 1198.71,158.43 1207.26,178.83 " fill="none" id="Empleador-Editar oferta" style="stroke: #A80036; stroke-width: 1.0;"/><!--MD5=[1fe88b337d4079fe5738dbf82d163a03]
link Empleador to Cerrar oferta--><path d="M1190.02,68.19 C1218.63,83.16 1258.82,105.33 1292,128 C1315.39,143.98 1340.4,165.18 1355.87,178.83 " fill="none" id="Empleador-Cerrar oferta" style="stroke: #A80036; stroke-width: 1.0;"/><!--MD5=[7662273ab0b171bf5e7f188b94b9e26f]
link Empleador to Ver postulaciones--><path d="M1190.16,55.06 C1247.95,64.64 1361.98,87.23 1451,128 C1478.71,140.69 1507.1,161.45 1525.32,175.99 " fill="none" id="Empleador-Ver postulaciones" style="stroke: #A80036; stroke-width: 1.0;"/><!--MD5=[17147199ed1a290299cb557c0c332359]
link Publicar oferta to Gestionar perfil empresarial--><path d="M275.27,205.62 C288.88,209.09 304.05,212.83 318,216 C492.54,255.67 698.33,295.59 810.92,316.85 " fill="none" id="Publicar oferta-&gt;Gestionar perfil empresarial" style="stroke: #A80036; stroke-width: 1.0; stroke-dasharray: 7.0,7.0;"/><polygon fill="#A80036" points="815.88,317.78,807.7792,312.1785,810.9669,316.8517,806.2938,320.0394,815.88,317.78" style="stroke: #A80036; stroke-width: 1.0;"/><text fill="#000000" font-family="sans-serif" font-size="13" lengthAdjust="spacingAndGlyphs" textLength="61" x="524" y="259.0669">«include»</text><!--MD5=[9b095638aa23accc081b1b47fe4eeadc]
link Validar correo electrónico to Mail--><path d="M782.46,208.95 C767.79,211.56 752.43,214.06 738,216 C476.78,251.11 399.62,208.39 150,293 C146.47,294.2 142.9,295.52 139.32,296.93 " fill="none" id="Validar correo electrónico-&gt;Mail" style="stroke: #A80036; stroke-width: 1.0; stroke-dasharray: 7.0,7.0;"/><polygon fill="#A80036" points="134.44,298.9,144.2828,299.2453,139.0774,297.0308,141.292,291.8254,134.44,298.9" style="stroke: #A80036; stroke-width: 1.0;"/><text fill="#000000" font-family="sans-serif" font-size="13" lengthAdjust="spacingAndGlyphs" textLength="61" x="327" y="259.0669">«include»</text><!--MD5=[993c0d41b843f7824a3a78c3dcea2ba8]
@startuml
actor Empleador
actor "Sistema de Correo" as Mail

rectangle CJDB {
  Empleador - - (Registrarse)
  Empleador - - (Validar correo electrónico)
  Empleador - - (Iniciar sesión)
  Empleador - - (Gestionar perfil empresarial)
  Empleador - - (Publicar oferta)
  note left of (Publicar oferta) : Requiere cuenta validada (RF-01)
  Empleador - - (Editar oferta)
  Empleador - - (Cerrar oferta)
  Empleador - - (Ver postulaciones)
}

(Publicar oferta) ..> (Gestionar perfil empresarial) : <<include>>

(Validar correo electrónico) ..> Mail : <<include>>

@enduml

PlantUML version 1.2020.02(Sun Mar 01 06:22:07 VET 2020)
(GPL source distribution)
Java Runtime: OpenJDK Runtime Environment
JVM: OpenJDK 64-Bit Server VM
Java Version: 17.0.18+8-Debian-1deb12u1
Operating System: Linux
Default Encoding: UTF-8
Language: es
Country: VE
--></g></svg>