<?xml version="1.0" encoding="UTF-8" standalone="no"?><svg xmlns="http://www.w3.org/2000/svg" xmlns:xlink="http://www.w3.org/1999/xlink" contentScriptType="application/ecmascript" contentStyleType="text/css" height="499px" preserveAspectRatio="none" style="width:1440px;height:499px;" version="1.1" viewBox="0 0 1440 499" width="1440px" zoomAndPan="magnify"><defs><filter height="300%" id="ffnpr7f7glbof" width="300%" x="-1" y="-1"><feGaussianBlur result="blurOut" stdDeviation="2.0"/><feColorMatrix in="blurOut" result="blurOut2" type="matrix" values="0 0 0 0 0 0 0 0 0 0 0 0 0 0 0 0 0 0 .4 0"/><feOffset dx="4.0" dy="4.0" in="blurOut2" result="blurOut3"/><feBlend in="SourceGraphic" in2="blurOut3" mode="normal"/></filter></defs><g><!--MD5=[89cca7d741880ff589fca1cbc8f9c3c4]
cluster CJDB--><rect fill="#FFFFFF" filter="url(#ffnpr7f7glbof)" height="209" style="stroke: #000000; stroke-width: 1.5;" width="1303" x="22" y="136"/><text fill="#000000" font-family="sans-serif" font-size="14" font-weight="bold" lengthAdjust="spacingAndGlyphs" textLength="36" x="655.5" y="150.9951">CJDB</text><ellipse cx="544.8614" cy="189.0236" fill="#FEFECE" filter="url(#ffnpr7f7glbof)" rx="58.8614" ry="14.5236" style="stroke: #A80036; stroke-width: 1.5;"/><text fill="#000000" font-family="sans-serif" font-size="14" lengthAdjust="spacingAndGlyphs" textLength="79" x="505.3614" y="193.6721">Registrarse</text><ellipse cx="877.0203" cy="306.3041" fill="#FEFECE" filter="url(#ffnpr7f7glbof)" rx="99.5203" ry="22.3041" style="stroke: #A80036; stroke-width: 1.5;"/><text fill="#000000" font-family="sans-serif" font-size="14" lengthAdjust="spacingAndGlyphs" textLength="175" x="789.5203" y="310.9525">Validar correo electrónico</text><ellipse cx="702.8339" cy="189.0668" fill="#FEFECE" filter="url(#ffnpr7f7glbof)" rx="63.3339" ry="15.0668" style="stroke: #A80036; stroke-width: 1.5;"/><text fill="#000000" font-family="sans-serif" font-size="14" lengthAdjust="spacingAndGlyphs" textLength="89" x="658.3339" y="193.7152">Iniciar sesión</text><ellipse cx="880.0262" cy="189.0052" fill="#FEFECE" filter="url(#ffnpr7f7glbof)" rx="78.0262" ry="18.0052" style="stroke: #A80036; stroke-width: 1.5;"/><text fill="#000000" font-family="sans-serif" font-size="14" lengthAdjust="spacingAndGlyphs" textLength="126" x="817.0262" y="193.6537">Crear / Editar perfil</text><ellipse cx="1065.7526" cy="188.8505" fill="#FEFECE" filter="url(#ffnpr7f7glbof)" rx="72.2526" ry="16.8505" style="stroke: #A80036; stroke-width: 1.5;"/><text fill="#000000" font-family="sans-serif" font-size="14" lengthAdjust="spacingAndGlyphs" textLength="112" x="1009.7526" y="193.499">Subir CV en PDF</text><ellipse cx="1240.9975" cy="188.8995" fill="#FEFECE" filter="url(#ffnpr7f7glbof)" rx="67.4975" ry="15.8995" style="stroke: #A80036; stroke-width: 1.5;"/><text fill="#000000" font-family="sans-serif" font-size="14" lengthAdjust="spacingAndGlyphs" textLength="100" x="1190.9975" y="193.5479">Buscar ofertas</text><ellipse cx="390.0616" cy="306.6123" fill="#FEFECE" filter="url(#ffnpr7f7glbof)" rx="83.5616" ry="19.1123" style="stroke: #A80036; stroke-width: 1.5;"/><text fill="#000000" font-family="sans-serif" font-size="14" lengthAdjust="spacingAndGlyphs" textLength="139" x="320.5616" y="311.2608">Ver detalle de oferta</text><ellipse cx="110.7526" cy="188.8505" fill="#FEFECE" filter="url(#ffnpr7f7glbof)" rx="72.2526" ry="16.8505" style="stroke: #A80036; stroke-width: 1.5;"/><text fill="#000000" font-family="sans-serif" font-size="14" lengthAdjust="spacingAndGlyphs" textLength="112" x="54.7526" y="193.499">Postular a oferta</text><path d="M219,176.5 L219,185 L183.62,189 L219,193 L219,201.6328 A0,0 0 0 0 219,201.6328 L451,201.6328 A0,0 0 0 0 451,201.6328 L451,186.5 L441,176.5 L219,176.5 A0,0 0 0 0 219,176.5 " fill="#FBFB77" filter="url(#ffnpr7f7glbof)" style="stroke: #A80036; stroke-width: 1.0;"/><path d="M441,176.5 L441,186.5 L451,186.5 L441,176.5 " fill="#FBFB77" style="stroke: #A80036; stroke-width: 1.0;"/><text fill="#000000" font-family="sans-serif" font-size="13" lengthAdjust="spacingAndGlyphs" textLength="211" x="225" y="193.5669">Requiere cuenta validada (RF-01)</text><!--MD5=[1d7606b5208cbdde2fa070267964f4d4]
entity Buscador--><ellipse cx="996" cy="17.5" fill="#FEFECE" filter="url(#ffnpr7f7glbof)" rx="8" ry="8" style="stroke: #A80036; stroke-width: 1.5;"/><path d="M996,25.5 L996,52.5 M983,33.5 L1009,33.5 M996,52.5 L983,67.5 M996,52.5 L1009,67.5 " fill="none" filter="url(#ffnpr7f7glbof)" style="stroke: #A80036; stroke-width: 1.5;"/><text fill="#000000" font-family="sans-serif" font-size="14" lengthAdjust="spacingAndGlyphs" textLength="144" x="924" y="85.9951">Buscador de Empleo</text><!--MD5=[d6e75f2a2d9b7b2a48fe909117c6250f]
entity Mail--><ellipse cx="877" cy="417.5" fill="#FEFECE" filter="url(#ffnpr7f7glbof)" rx="8" ry="8" style="stroke: #A80036; stroke-width: 1.5;"/><path d="M877,425.5 L877,452.5 M864,433.5 L890,433.5 M877,452.5 L864,467.5 M877,452.5 L890,467.5 " fill="none" filter="url(#ffnpr7f7glbof)" style="stroke: #A80036; stroke-width: 1.5;"/><text fill="#000000" font-family="sans-serif" font-size="14" lengthAdjust="spacingAndGlyphs" textLength="128" x="813" y="485.9951">Sistema de Correo</text><!--MD5=[29744165631331c7f949bd75843dcbde]
link Buscador to Registrarse--><path d="M923.7,54.92 C846.05,62.93 720.55,82.28 622,128 C596.94,139.63 572.58,160.77 558.18,174.6 " fill="none" id="Buscador-Registrarse" style="stroke: #A80036; stroke-width: 1.0;"/><!--MD5=[5210131ef283b4112ad678df176ccfe5]
link Buscador to Validar correo electrónico--><path d="M1068.14,51.62 C1169.98,56.29 1347.98,71.26 1388,119 C1426.55,164.98 1428.24,209.5 1388,254 C1360.88,283.99 1115.69,297.33 975.04,302.57 " fill="none" id="Buscador-Validar correo electrónico" style="stroke: #A80036; stroke-width: 1.0;"/><!--MD5=[5b894a00cbdd047761d92031e8ff2b9c]
link Buscador to Iniciar sesión--><path d="M923.54,70.96 C881.8,84.66 829.05,104.28 785,128 C760.3,141.3 734.65,161.22 718.76,174.41 " fill="none" id="Buscador-Iniciar sesión" style="stroke: #A80036; stroke-width: 1.0;"/><!--MD5=[54cee93a03c37b85903e9d93f7cc8628]
link Buscador to Crear / Editar perfil--><path d="M962.76,89.19 C940,116.37 910.97,151.02 894.04,171.24 " fill="none" id="Buscador-Crear / Editar perfil" style="stroke: #A80036; stroke-width: 1.0;"/><!--MD5=[4484aeaea55e8110f366e4ed3e0e0034]
link Buscador to Subir CV en PDF--><path d="M1016.06,89.19 C1029.96,116.69 1047.72,151.84 1057.89,171.95 " fill="none" id="Buscador-Subir CV en PDF" style="stroke: #A80036; stroke-width: 1.0;"/><!--MD5=[488b3daf34d5273524c7ab747faae0c9]
link Buscador to Buscar ofertas--><path d="M1068.17,81.92 C1096.12,95.24 1128.06,111.43 1156,128 C1179.77,142.1 1205.49,160.78 1222.34,173.52 " fill="none" id="Buscador-Buscar ofertas" style="stroke: #A80036; stroke-width: 1.0;"/><!--MD5=[d818f01e000119d8732eec561ba2c2f0]
link Buscador to Ver detalle de oferta--><path d="M1068.37,56.39 C1155.62,66.36 1294.51,88.14 1326,128 C1347.77,155.55 1349.49,180.91 1326,207 C1297.37,238.8 688.75,284.52 468.59,300.08 " fill="none" id="Buscador-Ver detalle de oferta" style="stroke: #A80036; stroke-width: 1.0;"/><!--MD5=[aa826509226d46b240e0f10cdb1ea771]
link Buscador to Postular a oferta--><path d="M923.78,52.21 C754.06,59.29 334.19,81.13 202,128 C174,137.93 146.12,158.25 128.74,172.48 " fill="none" id="Buscador-Postular a oferta" style="stroke: #A80036; stroke-width: 1.0;"/><!--MD5=[24b2a789c6a504699f3afad28104eda6]
link Registrarse to Validar correo electrónico--><path d="M577.14,201.18 C633.15,220.67 749.4,261.11 819.56,285.52 " fill="none" id="Registrarse-&gt;Validar correo electrónico" style="stroke: #A80036; stroke-width: 1.0;"/><polygon fill="#A80036" points="824.53,287.25,817.3412,280.5179,819.8069,285.6091,814.7157,288.0748,824.53,287.25" style="stroke: #A80036; stroke-width: 1.0;"/><!--MD5=[9b095638aa23accc081b1b47fe4eeadc]
link Validar correo electrónico to Mail--><path d="M877,329.07 C877,348.62 877,378.05 877,402.68 " fill="none" id="Validar correo electrónico-&gt;Mail" style="stroke: #A80036; stroke-width: 1.0; stroke-dasharray: 7.0,7.0;"/><polygon fill="#A80036" points="877,407.86,881,398.86,877,402.86,873,398.86,877,407.86" style="stroke: #A80036; stroke-width: 1.0;"/><text fill="#000000" font-family="sans-serif" font-size="13" lengthAdjust="spacingAndGlyphs" textLength="61" x="878" y="374.0669">«include»</text><!--MD5=[a01745462d92b1bd9cff60b0cc98fb6b]
link Postular a oferta to Ver detalle de oferta--><path d="M144.93,204.05 C195.54,225 290.79,264.43 346.46,287.48 " fill="none" id="Postular a oferta-&gt;Ver detalle de oferta" style="stroke: #A80036; stroke-width: 1.0; stroke-dasharray: 7.0,7.0;"/><polygon fill="#A80036" points="351.39,289.52,344.6098,282.3766,346.7717,287.604,341.5442,289.7659,351.39,289.52" style="stroke: #A80036; stroke-width: 1.0;"/><text fill="#000000" font-family="sans-serif" font-size="13" lengthAdjust="spacingAndGlyphs" textLength="61" x="259" y="250.0669">«include»</text><!--MD5=[aae9caf732fa3810ece50735f306dcb3]
@startuml
actor "Buscador de Empleo" as Buscador
actor "Sistema de Correo" as Mail

rectangle CJDB {
  Buscador - - (Registrarse)
  Buscador - - (Validar correo electrónico)
  Buscador - - (Iniciar sesión)
  Buscador - - (Crear / Editar perfil)
  Buscador - - (Subir CV en PDF)
  Buscador - - (Buscar ofertas)
  Buscador - - (Ver detalle de oferta)
  Buscador - - (Postular a oferta)
  note right of (Postular a oferta) : Requiere cuenta validada (RF-01)
}

(Registrarse) - -> (Validar correo electrónico)
(Validar correo electrónico) ..> Mail : <<include>>
(Postular a oferta) ..> (Ver detalle de oferta) : <<include>>

@enduml

PlantUML version 1.2020.02(Sun Mar 01 06:22:07 VET 2020)
(GPL source distribution)
Java Runtime: OpenJDK Runtime Environment
JVM: OpenJDK 64-Bit Server VM
Java Version: 17.0.18+8-Debian-1deb12u1
Operating System: Linux
Default Encoding: UTF-8
Language: es
Country: VE
--></g></svg>