<?xml version="1.0" encoding="UTF-8" standalone="no"?><svg xmlns="http://www.w3.org/2000/svg" xmlns:xlink="http://www.w3.org/1999/xlink" contentScriptType="application/ecmascript" contentStyleType="text/css" height="971px" preserveAspectRatio="none" style="width:1065px;height:971px;" version="1.1" viewBox="0 0 1065 971" width="1065px" zoomAndPan="magnify"><defs><filter height="300%" id="f13t9f5w75x1yo" width="300%" x="-1" y="-1"><feGaussianBlur result="blurOut" stdDeviation="2.0"/><feColorMatrix in="blurOut" result="blurOut2" type="matrix" values="0 0 0 0 0 0 0 0 0 0 0 0 0 0 0 0 0 0 .4 0"/><feOffset dx="4.0" dy="4.0" in="blurOut2" result="blurOut3"/><feBlend in="SourceGraphic" in2="blurOut3" mode="normal"/></filter></defs><g><!--MD5=[89cca7d741880ff589fca1cbc8f9c3c4]
cluster CJDB--><rect fill="#FFFFFF" filter="url(#f13t9f5w75x1yo)" height="852" style="stroke: #000000; stroke-width: 1.5;" width="619" x="197" y="108"/><text fill="#000000" font-family="sans-serif" font-size="14" font-weight="bold" lengthAdjust="spacingAndGlyphs" textLength="36" x="488.5" y="122.9951">CJDB</text><ellipse cx="328.7712" cy="161.8542" fill="#FEFECE" filter="url(#f13t9f5w75x1yo)" rx="82.2712" ry="18.8542" style="stroke: #A80036; stroke-width: 1.5;"/><text fill="#000000" font-family="sans-serif" font-size="14" lengthAdjust="spacingAndGlyphs" textLength="136" x="260.7712" y="166.5027">Ver ofertas públicas</text><ellipse cx="328.8614" cy="512.0236" fill="#FEFECE" filter="url(#f13t9f5w75x1yo)" rx="58.8614" ry="14.5236" style="stroke: #A80036; stroke-width: 1.5;"/><text fill="#000000" font-family="sans-serif" font-size="14" lengthAdjust="spacingAndGlyphs" textLength="79" x="289.3614" y="516.6721">Registrarse</text><ellipse cx="328.8339" cy="447.0668" fill="#FEFECE" filter="url(#f13t9f5w75x1yo)" rx="63.3339" ry="15.0668" style="stroke: #A80036; stroke-width: 1.5;"/><text fill="#000000" font-family="sans-serif" font-size="14" lengthAdjust="spacingAndGlyphs" textLength="89" x="284.3339" y="451.7152">Iniciar sesión</text><ellipse cx="328.9975" cy="644.8995" fill="#FEFECE" filter="url(#f13t9f5w75x1yo)" rx="67.4975" ry="15.8995" style="stroke: #A80036; stroke-width: 1.5;"/><text fill="#000000" font-family="sans-serif" font-size="14" lengthAdjust="spacingAndGlyphs" textLength="100" x="278.9975" y="649.5479">Buscar ofertas</text><ellipse cx="328.7526" cy="712.8505" fill="#FEFECE" filter="url(#f13t9f5w75x1yo)" rx="72.2526" ry="16.8505" style="stroke: #A80036; stroke-width: 1.5;"/><text fill="#000000" font-family="sans-serif" font-size="14" lengthAdjust="spacingAndGlyphs" textLength="112" x="272.7526" y="717.499">Postular a oferta</text><path d="M568,700.5 L568,709 L401.86,713 L568,717 L568,725.6328 A0,0 0 0 0 568,725.6328 L800,725.6328 A0,0 0 0 0 800,725.6328 L800,710.5 L790,700.5 L568,700.5 A0,0 0 0 0 568,700.5 " fill="#FBFB77" filter="url(#f13t9f5w75x1yo)" style="stroke: #A80036; stroke-width: 1.0;"/><path d="M790,700.5 L790,710.5 L800,710.5 L790,700.5 " fill="#FBFB77" style="stroke: #A80036; stroke-width: 1.0;"/><text fill="#000000" font-family="sans-serif" font-size="13" lengthAdjust="spacingAndGlyphs" textLength="211" x="574" y="717.5669">Requiere cuenta validada (RF-01)</text><ellipse cx="329.06" cy="578.212" fill="#FEFECE" filter="url(#f13t9f5w75x1yo)" rx="69.06" ry="16.212" style="stroke: #A80036; stroke-width: 1.5;"/><text fill="#000000" font-family="sans-serif" font-size="14" lengthAdjust="spacingAndGlyphs" textLength="104" x="277.06" y="582.8604">Gestionar perfil</text><ellipse cx="684.2254" cy="271.2451" fill="#FEFECE" filter="url(#f13t9f5w75x1yo)" rx="66.7254" ry="15.7451" style="stroke: #A80036; stroke-width: 1.5;"/><text fill="#000000" font-family="sans-serif" font-size="14" lengthAdjust="spacingAndGlyphs" textLength="98" x="635.2254" y="275.8935">Publicar oferta</text><path d="M213,371.5 L213,396.6328 L445,396.6328 L445,381.5 L435,371.5 L213,371.5 " fill="#FBFB77" filter="url(#f13t9f5w75x1yo)" style="stroke: #A80036; stroke-width: 1.0;"/><path d="M435,371.5 L435,381.5 L445,381.5 L435,371.5 " fill="#FBFB77" style="stroke: #A80036; stroke-width: 1.0;"/><text fill="#000000" font-family="sans-serif" font-size="13" lengthAdjust="spacingAndGlyphs" textLength="211" x="219" y="388.5669">Requiere cuenta validada (RF-01)</text><ellipse cx="329.1307" cy="235.0261" fill="#FEFECE" filter="url(#f13t9f5w75x1yo)" rx="83.1307" ry="19.0261" style="stroke: #A80036; stroke-width: 1.5;"/><text fill="#000000" font-family="sans-serif" font-size="14" lengthAdjust="spacingAndGlyphs" textLength="138" x="260.1307" y="239.6746">Editar / Cerrar oferta</text><ellipse cx="328.9496" cy="312.9899" fill="#FEFECE" filter="url(#f13t9f5w75x1yo)" rx="105.4496" ry="23.4899" style="stroke: #A80036; stroke-width: 1.5;"/><text fill="#000000" font-family="sans-serif" font-size="14" lengthAdjust="spacingAndGlyphs" textLength="188" x="234.9496" y="317.6384">Gestionar perfil empresarial</text><ellipse cx="329.0454" cy="782.1091" fill="#FEFECE" filter="url(#f13t9f5w75x1yo)" rx="71.0454" ry="16.6091" style="stroke: #A80036; stroke-width: 1.5;"/><text fill="#000000" font-family="sans-serif" font-size="14" lengthAdjust="spacingAndGlyphs" textLength="109" x="274.5454" y="786.7575">Moderar ofertas</text><ellipse cx="329.2133" cy="851.8427" fill="#FEFECE" filter="url(#f13t9f5w75x1yo)" rx="79.7133" ry="18.3427" style="stroke: #A80036; stroke-width: 1.5;"/><text fill="#000000" font-family="sans-serif" font-size="14" lengthAdjust="spacingAndGlyphs" textLength="130" x="264.2133" y="856.4911">Gestionar usuarios</text><ellipse cx="329.0616" cy="925.1123" fill="#FEFECE" filter="url(#f13t9f5w75x1yo)" rx="83.5616" ry="19.1123" style="stroke: #A80036; stroke-width: 1.5;"/><text fill="#000000" font-family="sans-serif" font-size="14" lengthAdjust="spacingAndGlyphs" textLength="139" x="259.5616" y="929.7608">Suspender usuarios</text><ellipse cx="684.0203" cy="535.8041" fill="#FEFECE" filter="url(#f13t9f5w75x1yo)" rx="99.5203" ry="22.3041" style="stroke: #A80036; stroke-width: 1.5;"/><text fill="#000000" font-family="sans-serif" font-size="14" lengthAdjust="spacingAndGlyphs" textLength="175" x="596.5203" y="540.4525">Validar correo electrónico</text><ellipse cx="684.0183" cy="628.0037" fill="#FEFECE" filter="url(#f13t9f5w75x1yo)" rx="110.5183" ry="24.5037" style="stroke: #A80036; stroke-width: 1.5;"/><text fill="#000000" font-family="sans-serif" font-size="14" lengthAdjust="spacingAndGlyphs" textLength="199" x="584.5183" y="632.6521">Enviar notificación por correo</text><!--MD5=[65aece90a3e11361bcc4f9f97829be49]
entity Visitante--><ellipse cx="78" cy="18" fill="#FEFECE" filter="url(#f13t9f5w75x1yo)" rx="8" ry="8" style="stroke: #A80036; stroke-width: 1.5;"/><path d="M78,26 L78,53 M65,34 L91,34 M78,53 L65,68 M78,53 L91,68 " fill="none" filter="url(#f13t9f5w75x1yo)" style="stroke: #A80036; stroke-width: 1.5;"/><text fill="#000000" font-family="sans-serif" font-size="14" lengthAdjust="spacingAndGlyphs" textLength="59" x="48.5" y="86.4951">Visitante</text><!--MD5=[1d7606b5208cbdde2fa070267964f4d4]
entity Buscador--><ellipse cx="78" cy="547" fill="#FEFECE" filter="url(#f13t9f5w75x1yo)" rx="8" ry="8" style="stroke: #A80036; stroke-width: 1.5;"/><path d="M78,555 L78,582 M65,563 L91,563 M78,582 L65,597 M78,582 L91,597 " fill="none" filter="url(#f13t9f5w75x1yo)" style="stroke: #A80036; stroke-width: 1.5;"/><text fill="#000000" font-family="sans-serif" font-size="14" lengthAdjust="spacingAndGlyphs" textLength="144" x="6" y="615.4951">Buscador de Empleo</text><!--MD5=[e4c5b6877294e03f5bb7957e4cc48e18]
entity Empleador--><ellipse cx="78" cy="282" fill="#FEFECE" filter="url(#f13t9f5w75x1yo)" rx="8" ry="8" style="stroke: #A80036; stroke-width: 1.5;"/><path d="M78,290 L78,317 M65,298 L91,298 M78,317 L65,332 M78,317 L91,332 " fill="none" filter="url(#f13t9f5w75x1yo)" style="stroke: #A80036; stroke-width: 1.5;"/><text fill="#000000" font-family="sans-serif" font-size="14" lengthAdjust="spacingAndGlyphs" textLength="74" x="41" y="350.4951">Empleador</text><!--MD5=[2e903384ba6a94be9c906ea46910cc3f]
entity Administrador--><ellipse cx="78" cy="821" fill="#FEFECE" filter="url(#f13t9f5w75x1yo)" rx="8" ry="8" style="stroke: #A80036; stroke-width: 1.5;"/><path d="M78,829 L78,856 M65,837 L91,837 M78,856 L65,871 M78,856 L91,871 " fill="none" filter="url(#f13t9f5w75x1yo)" style="stroke: #A80036; stroke-width: 1.5;"/><text fill="#000000" font-family="sans-serif" font-size="14" lengthAdjust="spacingAndGlyphs" textLength="95" x="30.5" y="889.4951">Administrador</text><!--MD5=[d6e75f2a2d9b7b2a48fe909117c6250f]
entity Mail--><ellipse cx="989" cy="551" fill="#FEFECE" filter="url(#f13t9f5w75x1yo)" rx="8" ry="8" style="stroke: #A80036; stroke-width: 1.5;"/><path d="M989,559 L989,586 M976,567 L1002,567 M989,586 L976,601 M989,586 L1002,601 " fill="none" filter="url(#f13t9f5w75x1yo)" style="stroke: #A80036; stroke-width: 1.5;"/><text fill="#000000" font-family="sans-serif" font-size="14" lengthAdjust="spacingAndGlyphs" textLength="128" x="925" y="619.4951">Sistema de Correo</text><!--MD5=[867251dd3d795372f34232b046e01d68]
link Visitante to Ver ofertas públicas--><path d="M107.56,61.96 C152.66,82.43 240.35,122.22 290.47,144.97 " fill="none" id="Visitante-Ver ofertas públicas" style="stroke: #A80036; stroke-width: 1.0;"/><!--MD5=[29744165631331c7f949bd75843dcbde]
link Buscador to Registrarse--><path d="M150.08,555.19 C162.98,551.29 176.36,547.4 189,544 C220.44,535.53 256.26,527.32 283.66,521.34 " fill="none" id="Buscador-Registrarse" style="stroke: #A80036; stroke-width: 1.0;"/><!--MD5=[5b894a00cbdd047761d92031e8ff2b9c]
link Buscador to Iniciar sesión--><path d="M115.12,537.41 C135.05,517.35 161.33,494.42 189,480 C214.62,466.65 245.71,458.61 271.99,453.82 " fill="none" id="Buscador-Iniciar sesión" style="stroke: #A80036; stroke-width: 1.0;"/><!--MD5=[488b3daf34d5273524c7ab747faae0c9]
link Buscador to Buscar ofertas--><path d="M150.15,599.93 C163.04,603.74 176.4,607.57 189,611 C219.08,619.19 253.08,627.52 279.92,633.88 " fill="none" id="Buscador-Buscar ofertas" style="stroke: #A80036; stroke-width: 1.0;"/><!--MD5=[aa826509226d46b240e0f10cdb1ea771]
link Buscador to Postular a oferta--><path d="M114.32,618.53 C134.32,639.13 160.91,662.94 189,678 C212.79,690.76 241.39,698.99 266.44,704.24 " fill="none" id="Buscador-Postular a oferta" style="stroke: #A80036; stroke-width: 1.0;"/><!--MD5=[149aa08c361496f656666d70b65e95ac]
link Buscador to Gestionar perfil--><path d="M150.02,578 C184.52,578 225.78,578 259.89,578 " fill="none" id="Buscador-Gestionar perfil" style="stroke: #A80036; stroke-width: 1.0;"/><!--MD5=[4ee8576f9a638faf2691c030e5f27113]
link Empleador to Registrarse--><path d="M95.33,353.61 C112.8,391.83 144.21,447.74 189,479 C213.2,495.89 244.94,504.21 271.98,508.28 " fill="none" id="Empleador-Registrarse" style="stroke: #A80036; stroke-width: 1.0;"/><!--MD5=[e521752c02f82c026d9a9c175118e3f7]
link Empleador to Iniciar sesión--><path d="M115.09,332.65 C136.92,346.19 163.78,366.03 181,390 C187.56,399.13 180.71,406.41 189,414 C209.68,432.92 239.18,441.57 265.69,445.32 " fill="none" id="Empleador-Iniciar sesión" style="stroke: #A80036; stroke-width: 1.0;"/><!--MD5=[151d057446cdc13e70f433cc39f2347c]
link Empleador to Publicar oferta--><path d="M89.65,272.43 C103.92,227.27 134.05,156.51 189,125 C287.7,68.4 335.5,94.09 445,125 C537.37,151.07 629.23,224.15 666.11,255.93 " fill="none" id="Empleador-Publicar oferta" style="stroke: #A80036; stroke-width: 1.0;"/><!--MD5=[41869751efde46783a1ddb9dafeb10f1]
link GMN27 to Publicar oferta--><path d="M381.77,371.44 C401.64,366.37 424.47,360.25 445,354 C518.05,331.77 602.1,301.28 648.21,284.12 " fill="none" id="GMN27-Publicar oferta" style="stroke: #A80036; stroke-width: 1.0; stroke-dasharray: 7.0,7.0;"/><!--MD5=[82216f566d281cc7b6a2fa41683da3a6]
link Empleador to Editar / Cerrar oferta--><path d="M115.36,298.44 C136.64,290.17 164.14,279.92 189,272 C215.89,263.43 246.12,255.22 271.51,248.72 " fill="none" id="Empleador-Editar / Cerrar oferta" style="stroke: #A80036; stroke-width: 1.0;"/><!--MD5=[d5264a152262421ea472b8e7923f86e9]
link Empleador to Gestionar perfil empresarial--><path d="M115.21,313 C143.67,313 184.81,313 223.35,313 " fill="none" id="Empleador-Gestionar perfil empresarial" style="stroke: #A80036; stroke-width: 1.0;"/><!--MD5=[6aa2bc6f0b92b79f2a71043a6d0e3922]
link Administrador to Moderar ofertas--><path d="M125.59,835.88 C145.08,829.36 168.04,821.99 189,816 C218.03,807.71 250.81,799.63 277.25,793.43 " fill="none" id="Administrador-Moderar ofertas" style="stroke: #A80036; stroke-width: 1.0;"/><!--MD5=[49fc67602a2dbcb682c6a7d5fb8419e7]
link Administrador to Gestionar usuarios--><path d="M125.54,852 C160.31,852 208.65,852 249.38,852 " fill="none" id="Administrador-Gestionar usuarios" style="stroke: #A80036; stroke-width: 1.0;"/><!--MD5=[5b9feac3b733f9b5e41db521be967973]
link Administrador to Suspender usuarios--><path d="M125.65,867.91 C145.15,874.39 168.1,881.8 189,888 C216.29,896.09 246.84,904.31 272.34,910.95 " fill="none" id="Administrador-Suspender usuarios" style="stroke: #A80036; stroke-width: 1.0;"/><!--MD5=[24b2a789c6a504699f3afad28104eda6]
link Registrarse to Validar correo electrónico--><path d="M386.32,515.83 C439.15,519.42 519.32,524.87 583.01,529.2 " fill="none" id="Registrarse-&gt;Validar correo electrónico" style="stroke: #A80036; stroke-width: 1.0;"/><polygon fill="#A80036" points="588.34,529.56,579.6356,524.952,583.3518,529.217,579.0868,532.9331,588.34,529.56" style="stroke: #A80036; stroke-width: 1.0;"/><!--MD5=[9b095638aa23accc081b1b47fe4eeadc]
link Validar correo electrónico to Mail--><path d="M767,548.45 C814.76,555.7 874.28,564.74 919.52,571.6 " fill="none" id="Validar correo electrónico-&gt;Mail" style="stroke: #A80036; stroke-width: 1.0; stroke-dasharray: 7.0,7.0;"/><polygon fill="#A80036" points="924.68,572.39,916.3744,567.0968,919.7355,571.6469,915.1855,575.008,924.68,572.39" style="stroke: #A80036; stroke-width: 1.0;"/><text fill="#000000" font-family="sans-serif" font-size="13" lengthAdjust="spacingAndGlyphs" textLength="61" x="833" y="555.0669">«include»</text><!--MD5=[bde2f65ca59068a722a5976599ed3b0e]
link Postular a oferta to Enviar notificación por correo--><path d="M380.2,700.91 C438.38,686.9 535.02,663.63 603.45,647.15 " fill="none" id="Postular a oferta-&gt;Enviar notificación por correo" style="stroke: #A80036; stroke-width: 1.0; stroke-dasharray: 7.0,7.0;"/><polygon fill="#A80036" points="608.33,645.98,598.643,644.2016,603.4694,647.1523,600.5187,651.9786,608.33,645.98" style="stroke: #A80036; stroke-width: 1.0;"/><text fill="#000000" font-family="sans-serif" font-size="13" lengthAdjust="spacingAndGlyphs" textLength="61" x="476" y="662.0669">«include»</text><!--MD5=[527bd6adf66cb2cfac96bf65bbb0e608]
link Mail to Enviar notificación por correo--><path d="M924.85,591.59 C881.62,598.15 823.63,606.95 775.5,614.26 " fill="none" id="Mail-Enviar notificación por correo" style="stroke: #A80036; stroke-width: 1.0;"/><!--MD5=[fe03eb3e2b64084012fb6528e39a3d6a]
@startuml
left to right direction

actor Visitante
actor "Buscador de Empleo" as Buscador
actor Empleador
actor Administrador
actor "Sistema de Correo" as Mail

rectangle CJDB {
  Visitante - - (Ver ofertas públicas)

  Buscador - - (Registrarse)
  Buscador - - (Iniciar sesión)
  Buscador - - (Buscar ofertas)
  Buscador - - (Postular a oferta)
  note right of (Postular a oferta) : Requiere cuenta validada (RF-01)
  Buscador - - (Gestionar perfil)

  Empleador - - (Registrarse)
  Empleador - - (Iniciar sesión)
  Empleador - - (Publicar oferta)
  note left of (Publicar oferta) : Requiere cuenta validada (RF-01)
  Empleador - - (Editar / Cerrar oferta)
  Empleador - - (Gestionar perfil empresarial)

  Administrador - - (Moderar ofertas)
  Administrador - - (Gestionar usuarios)
  Administrador - - (Suspender usuarios)

  (Validar correo electrónico)
  (Enviar notificación por correo)

  (Registrarse) - -> (Validar correo electrónico)
  (Validar correo electrónico) ..> Mail : <<include>>

  (Postular a oferta) ..> (Enviar notificación por correo) : <<include>>
  Mail - - (Enviar notificación por correo)
}

@enduml

PlantUML version 1.2020.02(Sun Mar 01 06:22:07 VET 2020)
(GPL source distribution)
Java Runtime: OpenJDK Runtime Environment
JVM: OpenJDK 64-Bit Server VM
Java Version: 17.0.18+8-Debian-1deb12u1
Operating System: Linux
Default Encoding: UTF-8
Language: es
Country: VE
--></g></svg>