<?xml version="1.0" encoding="UTF-8" standalone="no"?><svg xmlns="http://www.w3.org/2000/svg" xmlns:xlink="http://www.w3.org/1999/xlink" contentScriptType="application/ecmascript" contentStyleType="text/css" height="1358px" preserveAspectRatio="none" style="width:1174px;height:1358px;" version="1.1" viewBox="0 0 1174 1358" width="1174px" zoomAndPan="magnify"><defs><filter height="300%" id="fjkj6bfket1o9" width="300%" x="-1" y="-1"><feGaussianBlur result="blurOut" stdDeviation="2.0"/><feColorMatrix in="blurOut" result="blurOut2" type="matrix" values="0 0 0 0 0 0 0 0 0 0 0 0 0 0 0 0 0 0 .4 0"/><feOffset dx="4.0" dy="4.0" in="blurOut2" result="blurOut3"/><feBlend in="SourceGraphic" in2="blurOut3" mode="normal"/></filter></defs><g><text fill="#888888" font-family="sans-serif" font-size="10" lengthAdjust="spacingAndGlyphs" textLength="73" x="1089" y="9.2822">Proyecto CJDB</text><text fill="#000000" font-family="sans-serif" font-size="20" lengthAdjust="spacingAndGlyphs" textLength="534" x="314" y="30.2051">Sistema de Banco de Datos CJDB (Diagrama Maestro)</text><!--MD5=[464ccf26cf2da1d2e8de64c8c3921dc2]
cluster Plataforma Banco de Datos CJDB--><rect fill="#FFFFFF" filter="url(#fjkj6bfket1o9)" height="1119" rx="5" ry="5" style="stroke: #000000; stroke-width: 1.5;" width="637" x="197" y="173.9219"/><text fill="#000000" font-family="sans-serif" font-size="14" font-weight="bold" lengthAdjust="spacingAndGlyphs" textLength="253" x="389" y="188.917">Plataforma Banco de Datos CJDB</text><!--MD5=[a2e4a20fbe16f9ed0cfaaf1f90f65642]
cluster 1. Autenticación (RF-01)--><path d="M235,539.9219 L421,539.9219 A7.5,7.5 0 0 1 426,544.9219 L433,562.2188 L805,562.2188 A5,5 0 0 1 810,567.2188 L810,828.9219 A5,5 0 0 1 805,833.9219 L235,833.9219 A5,5 0 0 1 230,828.9219 L230,544.9219 A5,5 0 0 1 235,539.9219 " fill="#FFFFFF" filter="url(#fjkj6bfket1o9)" style="stroke: #000000; stroke-width: 1.5;"/><line style="stroke: #000000; stroke-width: 1.5;" x1="230" x2="433" y1="562.2188" y2="562.2188"/><text fill="#000000" font-family="sans-serif" font-size="14" font-weight="bold" lengthAdjust="spacingAndGlyphs" textLength="190" x="234" y="554.917">1. Autenticación (RF-01)</text><!--MD5=[5ab596afd376346fc19b748a2c5380d3]
cluster 2. Gestión Empleador (RF-02)--><path d="M229,216.9219 L456,216.9219 A7.5,7.5 0 0 1 461,221.9219 L468,239.2188 L771.5,239.2188 A5,5 0 0 1 776.5,244.2188 L776.5,450.9219 A5,5 0 0 1 771.5,455.9219 L229,455.9219 A5,5 0 0 1 224,450.9219 L224,221.9219 A5,5 0 0 1 229,216.9219 " fill="#FFFFFF" filter="url(#fjkj6bfket1o9)" style="stroke: #000000; stroke-width: 1.5;"/><line style="stroke: #000000; stroke-width: 1.5;" x1="224" x2="468" y1="239.2188" y2="239.2188"/><text fill="#000000" font-family="sans-serif" font-size="14" font-weight="bold" lengthAdjust="spacingAndGlyphs" textLength="231" x="228" y="231.917">2. Gestión Empleador (RF-02)</text><!--MD5=[509ada0a43f975474ec4d074b21f08b9]
cluster 3. Búsqueda y Postulación (RF-03/04)--><path d="M247,857.9219 L538,857.9219 A7.5,7.5 0 0 1 543,862.9219 L550,880.2188 L798,880.2188 A5,5 0 0 1 803,885.2188 L803,1077.9219 A5,5 0 0 1 798,1082.9219 L247,1082.9219 A5,5 0 0 1 242,1077.9219 L242,862.9219 A5,5 0 0 1 247,857.9219 " fill="#FFFFFF" filter="url(#fjkj6bfket1o9)" style="stroke: #000000; stroke-width: 1.5;"/><line style="stroke: #000000; stroke-width: 1.5;" x1="242" x2="550" y1="880.2188" y2="880.2188"/><text fill="#000000" font-family="sans-serif" font-size="14" font-weight="bold" lengthAdjust="spacingAndGlyphs" textLength="295" x="246" y="872.917">3. Búsqueda y Postulación (RF-03/04)</text><!--MD5=[8f4b6e3b3b469e754f3a37066db892ec]
cluster 4. Back-Office (RF-05)--><path d="M226,1106.9219 L394,1106.9219 A7.5,7.5 0 0 1 399,1111.9219 L406,1129.2188 L448,1129.2188 A5,5 0 0 1 453,1134.2188 L453,1263.9219 A5,5 0 0 1 448,1268.9219 L226,1268.9219 A5,5 0 0 1 221,1263.9219 L221,1111.9219 A5,5 0 0 1 226,1106.9219 " fill="#FFFFFF" filter="url(#fjkj6bfket1o9)" style="stroke: #000000; stroke-width: 1.5;"/><line style="stroke: #000000; stroke-width: 1.5;" x1="221" x2="406" y1="1129.2188" y2="1129.2188"/><text fill="#000000" font-family="sans-serif" font-size="14" font-weight="bold" lengthAdjust="spacingAndGlyphs" textLength="172" x="225" y="1121.917">4. Back-Office (RF-05)</text><ellipse cx="677.9793" cy="496.8177" fill="#FEFECE" filter="url(#fjkj6bfket1o9)" rx="112.4793" ry="24.8959" style="stroke: #A80036; stroke-width: 1.5;"/><text fill="#000000" font-family="sans-serif" font-size="14" font-style="italic" lengthAdjust="spacingAndGlyphs" textLength="75" x="640.4793" y="489.0433">«Abstract»</text><text fill="#000000" font-family="sans-serif" font-size="14" lengthAdjust="spacingAndGlyphs" textLength="183" x="586.4793" y="505.3402">Verificar Estado 'Verificado'</text><ellipse cx="336.8614" cy="737.9455" fill="#FEFECE" filter="url(#fjkj6bfket1o9)" rx="58.8614" ry="14.5236" style="stroke: #A80036; stroke-width: 1.5;"/><text fill="#000000" font-family="sans-serif" font-size="14" lengthAdjust="spacingAndGlyphs" textLength="79" x="297.3614" y="742.5939">Registrarse</text><ellipse cx="337.2036" cy="803.0626" fill="#FEFECE" filter="url(#fjkj6bfket1o9)" rx="63.7036" ry="15.1407" style="stroke: #A80036; stroke-width: 1.5;"/><text fill="#000000" font-family="sans-serif" font-size="14" lengthAdjust="spacingAndGlyphs" textLength="90" x="292.2036" y="807.711">Iniciar Sesión</text><ellipse cx="336.9883" cy="594.0195" fill="#FEFECE" filter="url(#fjkj6bfket1o9)" rx="80.9883" ry="18.5977" style="stroke: #A80036; stroke-width: 1.5;"/><text fill="#000000" font-family="sans-serif" font-size="14" lengthAdjust="spacingAndGlyphs" textLength="133" x="270.4883" y="598.668">Validar Token Email</text><ellipse cx="336.9996" cy="668.0218" fill="#FEFECE" filter="url(#fjkj6bfket1o9)" rx="90.9996" ry="20.5999" style="stroke: #A80036; stroke-width: 1.5;"/><text fill="#000000" font-family="sans-serif" font-size="14" lengthAdjust="spacingAndGlyphs" textLength="156" x="258.9996" y="672.6702">Recuperar Contraseña</text><ellipse cx="677.7611" cy="703.9741" fill="#FEFECE" filter="url(#fjkj6bfket1o9)" rx="115.7611" ry="25.5522" style="stroke: #A80036; stroke-width: 1.5;"/><text fill="#000000" font-family="sans-serif" font-size="14" font-style="italic" lengthAdjust="spacingAndGlyphs" textLength="70" x="642.7611" y="695.3326">«Internal»</text><text fill="#000000" font-family="sans-serif" font-size="14" lengthAdjust="spacingAndGlyphs" textLength="196" x="579.7611" y="711.6295">Enviar Correo de Verificación</text><ellipse cx="336.8093" cy="417.6837" fill="#FEFECE" filter="url(#fjkj6bfket1o9)" rx="96.8093" ry="21.7619" style="stroke: #A80036; stroke-width: 1.5;"/><text fill="#000000" font-family="sans-serif" font-size="14" lengthAdjust="spacingAndGlyphs" textLength="169" x="252.3093" y="422.3322">Gestionar Perfil Empresa</text><ellipse cx="337.0637" cy="343.9346" fill="#FEFECE" filter="url(#fjkj6bfket1o9)" rx="73.0637" ry="17.0127" style="stroke: #A80036; stroke-width: 1.5;"/><text fill="#000000" font-family="sans-serif" font-size="14" lengthAdjust="spacingAndGlyphs" textLength="114" x="280.0637" y="348.5831">Publicar Vacante</text><ellipse cx="336.9128" cy="271.9044" fill="#FEFECE" filter="url(#fjkj6bfket1o9)" rx="87.9128" ry="19.9826" style="stroke: #A80036; stroke-width: 1.5;"/><text fill="#000000" font-family="sans-serif" font-size="14" lengthAdjust="spacingAndGlyphs" textLength="149" x="262.4128" y="276.5529">Gestionar Candidatos</text><ellipse cx="677.7712" cy="271.7761" fill="#FEFECE" filter="url(#fjkj6bfket1o9)" rx="82.2712" ry="18.8542" style="stroke: #A80036; stroke-width: 1.5;"/><text fill="#000000" font-family="sans-serif" font-size="14" lengthAdjust="spacingAndGlyphs" textLength="136" x="609.7712" y="276.4246">Descargar CV (PDF)</text><ellipse cx="336.7758" cy="908.977" fill="#FEFECE" filter="url(#fjkj6bfket1o9)" rx="68.2758" ry="16.0552" style="stroke: #A80036; stroke-width: 1.5;"/><text fill="#000000" font-family="sans-serif" font-size="14" lengthAdjust="spacingAndGlyphs" textLength="102" x="285.7758" y="913.6255">Buscar Ofertas</text><ellipse cx="336.8678" cy="1049.0954" fill="#FEFECE" filter="url(#fjkj6bfket1o9)" rx="78.8678" ry="18.1736" style="stroke: #A80036; stroke-width: 1.5;"/><text fill="#000000" font-family="sans-serif" font-size="14" lengthAdjust="spacingAndGlyphs" textLength="128" x="272.8678" y="1053.7439">Gestionar Perfil/CV</text><ellipse cx="336.8678" cy="978.0954" fill="#FEFECE" filter="url(#fjkj6bfket1o9)" rx="78.8678" ry="18.1736" style="stroke: #A80036; stroke-width: 1.5;"/><text fill="#000000" font-family="sans-serif" font-size="14" lengthAdjust="spacingAndGlyphs" textLength="128" x="272.8678" y="982.7439">Postular a Vacante</text><ellipse cx="678.0938" cy="978.1406" fill="#FEFECE" filter="url(#fjkj6bfket1o9)" rx="109.0938" ry="24.2188" style="stroke: #A80036; stroke-width: 1.5;"/><text fill="#000000" font-family="sans-serif" font-size="14" font-style="italic" lengthAdjust="spacingAndGlyphs" textLength="70" x="643.0938" y="970.9066">«Internal»</text><text fill="#000000" font-family="sans-serif" font-size="14" lengthAdjust="spacingAndGlyphs" textLength="171" x="592.5938" y="987.2035">Validar Postulación Única</text><ellipse cx="336.9738" cy="1164.8166" fill="#FEFECE" filter="url(#fjkj6bfket1o9)" rx="99.9738" ry="22.3948" style="stroke: #A80036; stroke-width: 1.5;"/><text fill="#000000" font-family="sans-serif" font-size="14" lengthAdjust="spacingAndGlyphs" textLength="176" x="248.9738" y="1169.4651">Moderar Usuarios/Ofertas</text><ellipse cx="336.8742" cy="1237.6967" fill="#FEFECE" filter="url(#fjkj6bfket1o9)" rx="61.8742" ry="14.7748" style="stroke: #A80036; stroke-width: 1.5;"/><text fill="#000000" font-family="sans-serif" font-size="14" lengthAdjust="spacingAndGlyphs" textLength="85" x="294.3742" y="1242.3452">Ver Métricas</text><!--MD5=[9eecb807d8a7c1ba44cb916f191401d3]
entity Guest--><ellipse cx="78" cy="700.9219" fill="#FEFECE" filter="url(#fjkj6bfket1o9)" rx="8" ry="8" style="stroke: #A80036; stroke-width: 1.5;"/><path d="M78,708.9219 L78,735.9219 M65,716.9219 L91,716.9219 M78,735.9219 L65,750.9219 M78,735.9219 L91,750.9219 " fill="none" filter="url(#fjkj6bfket1o9)" style="stroke: #A80036; stroke-width: 1.5;"/><text fill="#000000" font-family="sans-serif" font-size="14" lengthAdjust="spacingAndGlyphs" textLength="59" x="48.5" y="769.417">Visitante</text><!--MD5=[b0178da15e77bd2872e27034dc3dd9f3]
entity Searcher--><ellipse cx="78" cy="925.9219" fill="#FEFECE" filter="url(#fjkj6bfket1o9)" rx="8" ry="8" style="stroke: #A80036; stroke-width: 1.5;"/><path d="M78,933.9219 L78,960.9219 M65,941.9219 L91,941.9219 M78,960.9219 L65,975.9219 M78,960.9219 L91,975.9219 " fill="none" filter="url(#fjkj6bfket1o9)" style="stroke: #A80036; stroke-width: 1.5;"/><text fill="#000000" font-family="sans-serif" font-size="14" lengthAdjust="spacingAndGlyphs" textLength="144" x="6" y="994.417">Buscador de Empleo</text><!--MD5=[e3d7fad956befb23f1a8093c12fc44a0]
entity Employer--><ellipse cx="78" cy="312.9219" fill="#FEFECE" filter="url(#fjkj6bfket1o9)" rx="8" ry="8" style="stroke: #A80036; stroke-width: 1.5;"/><path d="M78,320.9219 L78,347.9219 M65,328.9219 L91,328.9219 M78,347.9219 L65,362.9219 M78,347.9219 L91,362.9219 " fill="none" filter="url(#fjkj6bfket1o9)" style="stroke: #A80036; stroke-width: 1.5;"/><text fill="#000000" font-family="sans-serif" font-size="14" lengthAdjust="spacingAndGlyphs" textLength="74" x="41" y="381.417">Empleador</text><!--MD5=[97ab183161fd5d1db7fba7485cf76add]
entity Admin--><ellipse cx="78" cy="1133.9219" fill="#FEFECE" filter="url(#fjkj6bfket1o9)" rx="8" ry="8" style="stroke: #A80036; stroke-width: 1.5;"/><path d="M78,1141.9219 L78,1168.9219 M65,1149.9219 L91,1149.9219 M78,1168.9219 L65,1183.9219 M78,1168.9219 L91,1183.9219 " fill="none" filter="url(#fjkj6bfket1o9)" style="stroke: #A80036; stroke-width: 1.5;"/><text fill="#000000" font-family="sans-serif" font-size="14" lengthAdjust="spacingAndGlyphs" textLength="95" x="30.5" y="1202.417">Administrador</text><!--MD5=[d6e75f2a2d9b7b2a48fe909117c6250f]
entity Mail--><ellipse cx="1040" cy="680.7188" fill="#FEFECE" filter="url(#fjkj6bfket1o9)" rx="8" ry="8" style="stroke: #A80036; stroke-width: 1.5;"/><path d="M1040,688.7188 L1040,715.7188 M1027,696.7188 L1053,696.7188 M1040,715.7188 L1027,730.7188 M1040,715.7188 L1053,730.7188 " fill="none" filter="url(#fjkj6bfket1o9)" style="stroke: #A80036; stroke-width: 1.5;"/><text fill="#000000" font-family="sans-serif" font-size="14" lengthAdjust="spacingAndGlyphs" textLength="128" x="976" y="749.2139">Sistema de Correo</text><text fill="#000000" font-family="sans-serif" font-size="14" font-style="italic" lengthAdjust="spacingAndGlyphs" textLength="69" x="1005.5" y="667.917">«System»</text><path d="M936,474.4219 L936,492.9219 L790.93,496.9219 L936,500.9219 L936,519.8203 A5,5 0 0 0 941,524.8203 L1139,524.8203 A5,5 0 0 0 1144,519.8203 L1144,479.4219 L1134,469.4219 L941,469.4219 A5,5 0 0 0 936,474.4219 " fill="#FBFB77" filter="url(#fjkj6bfket1o9)" style="stroke: #A80036; stroke-width: 1.0;"/><path d="M1134,469.4219 L1134,476.9219 A2.5,2.5 0 0 0 1136.5,479.4219 L1144,479.4219 L1134,469.4219 " fill="#FBFB77" style="stroke: #A80036; stroke-width: 1.0;"/><text fill="#000000" font-family="sans-serif" font-size="13" font-weight="bold" lengthAdjust="spacingAndGlyphs" textLength="140" x="942" y="486.4888">Seguridad (RF-01):</text><text fill="#000000" font-family="sans-serif" font-size="13" lengthAdjust="spacingAndGlyphs" textLength="171" x="942" y="501.6216">Acciones críticas requieren</text><text fill="#000000" font-family="sans-serif" font-size="13" lengthAdjust="spacingAndGlyphs" textLength="187" x="942" y="516.7544">correo validado previamente.</text><path d="M279.5,107.4219 L279.5,152.8203 A5,5 0 0 0 284.5,157.8203 L389.5,157.8203 A5,5 0 0 0 394.5,152.8203 L394.5,112.4219 L384.5,102.4219 L284.5,102.4219 A5,5 0 0 0 279.5,107.4219 " fill="#FBFB77" filter="url(#fjkj6bfket1o9)" style="stroke: #A80036; stroke-width: 1.0;"/><path d="M384.5,102.4219 L384.5,109.9219 A2.5,2.5 0 0 0 387,112.4219 L394.5,112.4219 L384.5,102.4219 " fill="#FBFB77" style="stroke: #A80036; stroke-width: 1.0;"/><text fill="#000000" font-family="sans-serif" font-size="13" font-weight="bold" lengthAdjust="spacingAndGlyphs" textLength="47" x="285.5" y="119.4888">RF-02:</text><text fill="#000000" font-family="sans-serif" font-size="13" lengthAdjust="spacingAndGlyphs" textLength="90" x="285.5" y="134.6216">Incluye Logo y</text><text fill="#000000" font-family="sans-serif" font-size="13" lengthAdjust="spacingAndGlyphs" textLength="78" x="285.5" y="149.7544">Descripción.</text><!--MD5=[2ffa435333c8f68025a7076ebd5f65e5]
link Guest to UC_Reg--><path d="M107.98,732.6019 C149.07,733.5619 225.14,735.3319 278.06,736.5719 " fill="none" id="Guest-UC_Reg" style="stroke: #A80036; stroke-width: 1.0;"/><!--MD5=[a0b9cd09cc67441be80fb366e5b2a356]
link Guest to UC_Login--><path d="M107.67,742.8119 C129.71,750.9419 161.01,761.9719 189,769.9219 C221.46,779.1419 258.53,787.4519 287.33,793.4219 " fill="none" id="Guest-UC_Login" style="stroke: #A80036; stroke-width: 1.0;"/><!--MD5=[3c60312cd9e49501e6725b4bf496b2e2]
link Guest to UC_Search--><path d="M107.88,762.9119 C129.01,784.4919 159.11,813.0419 189,833.9219 C225.41,859.3519 271.62,881.4819 302.41,894.9819 " fill="none" id="Guest-UC_Search" style="stroke: #A80036; stroke-width: 1.0;"/><!--MD5=[cd23b3c49846b71eb5f050b7fcabe87d]
link Guest to UC_Recov--><path d="M107.98,724.7019 C148.35,714.6519 222.47,696.1919 275.25,683.0519 " fill="none" id="Guest-UC_Recov" style="stroke: #A80036; stroke-width: 1.0;"/><!--MD5=[4e47cf70684ca26ff4a6846563dd4f11]
link Guest to UC_Valid--><path d="M107.84,697.2619 C128.29,674.8619 157.58,646.8419 189,629.9219 C212.94,617.0319 241.56,608.6819 267.15,603.3019 " fill="none" id="Guest-UC_Valid" style="stroke: #A80036; stroke-width: 1.0;"/><!--MD5=[63bae71c7a83327e0c594ce455270a45]
link Searcher to UC_CandProfile--><path d="M150.12,996.1119 C162.84,1002.2619 176.14,1008.1519 189,1012.9219 C216.83,1023.2619 248.74,1031.4819 275.69,1037.4419 " fill="none" id="Searcher-UC_CandProfile" style="stroke: #A80036; stroke-width: 1.0;"/><!--MD5=[9da6c482d640a9b2ef0e468bd74f89d3]
link Searcher to UC_Apply--><path d="M150.25,962.7419 C185.16,965.5919 227.15,969.0319 262.37,971.9019 " fill="none" id="Searcher-UC_Apply" style="stroke: #A80036; stroke-width: 1.0;"/><!--MD5=[ec01f499d21d367f7b0334fe3ea4074b]
link Searcher to UC_Search--><path d="M150.25,943.6119 C192.29,935.7619 244.6,925.9919 282.99,918.8219 " fill="none" id="Searcher-UC_Search" style="stroke: #A80036; stroke-width: 1.0;"/><!--MD5=[bc689529ab79ed0ebd91c0cc98eef426]
link Searcher to UC_Login--><path d="M125.66,916.3519 C142.22,902.9319 161.39,888.5019 180,876.9219 C220.6,851.6719 271.17,829.1619 303.52,815.7719 " fill="none" id="Searcher-UC_Login" style="stroke: #A80036; stroke-width: 1.0;"/><!--MD5=[5f961ba545f38e6b3d40a33205008f9a]
link Employer to UC_CorpProfile--><path d="M115.07,355.4119 C136.5,362.1519 164.24,370.7319 189,377.9219 C216.43,385.8919 246.88,394.2519 272.92,401.2619 " fill="none" id="Employer-UC_CorpProfile" style="stroke: #A80036; stroke-width: 1.0;"/><!--MD5=[ccb73653af8b3ed176d6d59dfef6f450]
link Employer to UC_JobCreate--><path d="M115.01,343.9219 C153.41,343.9219 215.26,343.9219 263.78,343.9219 " fill="none" id="Employer-UC_JobCreate" style="stroke: #A80036; stroke-width: 1.0;"/><!--MD5=[0c1f70f9dacace5f6fc3840fb62c9bcc]
link Employer to UC_JobManage--><path d="M115.5,331.6919 C136.83,324.6919 164.33,315.9419 189,308.9219 C217.22,300.8919 248.75,292.8319 275.34,286.3019 " fill="none" id="Employer-UC_JobManage" style="stroke: #A80036; stroke-width: 1.0;"/><!--MD5=[c55dcaf7eaffe61877107c199218305b]
link Employer to UC_DownCV--><path d="M82.74,303.3119 C90.67,243.5919 115.06,133.8519 189,84.9219 C289.81,18.2119 347.72,42.7019 461,84.9219 C553.26,119.3119 632.31,212.8019 663.17,253.0619 " fill="none" id="Employer-UC_DownCV" style="stroke: #A80036; stroke-width: 1.0;"/><!--MD5=[477ecc63f7f56216d8ba78562622cff3]
link Employer to UC_Login--><path d="M89.35,384.5819 C116.4,490.7319 187.23,768.2019 189,769.9219 C211.17,791.3919 244.13,800.0819 273.23,803.2119 " fill="none" id="Employer-UC_Login" style="stroke: #A80036; stroke-width: 1.0;"/><!--MD5=[813f5eb67c6487570499e0485e69000a]
link Admin to UC_Mod--><path d="M125.54,1164.9219 C156.57,1164.9219 198.54,1164.9219 236.83,1164.9219 " fill="none" id="Admin-UC_Mod" style="stroke: #A80036; stroke-width: 1.0;"/><!--MD5=[43160fccfb057bb54e3f7ac324203934]
link Admin to UC_Stats--><path d="M125.67,1183.3919 C145.07,1190.6719 167.94,1198.7519 189,1204.9219 C221.51,1214.4419 258.74,1222.7719 287.6,1228.6819 " fill="none" id="Admin-UC_Stats" style="stroke: #A80036; stroke-width: 1.0;"/><!--MD5=[89e4a812854ba76026a29176233e400d]
link Admin to UC_Login--><path d="M100.48,1124.3319 C115.65,1094.6019 135.74,1052.9619 150,1014.9219 C172.38,955.2419 148.43,926.0819 189,876.9219 C215.82,844.4119 260.54,824.8019 293.62,814.0119 " fill="none" id="Admin-UC_Login" style="stroke: #A80036; stroke-width: 1.0;"/><!--MD5=[5e9bbe1128f98813b04e700380728c36]
link UC_Reg to UC_SendEmail--><path d="M396.32,738.5419 C434.93,738.3619 486.62,736.9719 532,731.9219 C550.98,729.8119 571.2,726.5519 590.32,723.0019 " fill="none" id="UC_Reg-&gt;UC_SendEmail" style="stroke: #A80036; stroke-width: 1.0; stroke-dasharray: 7.0,7.0;"/><polygon fill="#A80036" points="595.68,721.9919,586.0938,719.7324,590.7669,722.9202,587.5792,727.5933,595.68,721.9919" style="stroke: #A80036; stroke-width: 1.0;"/><text fill="#000000" font-family="sans-serif" font-size="13" lengthAdjust="spacingAndGlyphs" textLength="61" x="470" y="727.9888">«include»</text><!--MD5=[997c5cbafd7a94169b80d79e3fad01a3]
link UC_Recov to UC_SendEmail--><path d="M419.63,676.5919 C464.15,681.3219 519.84,687.2319 568.02,692.3519 " fill="none" id="UC_Recov-&gt;UC_SendEmail" style="stroke: #A80036; stroke-width: 1.0; stroke-dasharray: 7.0,7.0;"/><polygon fill="#A80036" points="573.26,692.9019,564.7319,687.9753,568.2879,692.3747,563.8885,695.9307,573.26,692.9019" style="stroke: #A80036; stroke-width: 1.0;"/><text fill="#000000" font-family="sans-serif" font-size="13" lengthAdjust="spacingAndGlyphs" textLength="61" x="470" y="678.9888">«include»</text><!--MD5=[952f40a420629e757dc9b9a8230732c3]
link UC_SendEmail to Mail--><path d="M794.39,703.9219 C852.55,703.9219 921.08,703.9219 970.79,703.9219 " fill="none" id="UC_SendEmail-&gt;Mail" style="stroke: #A80036; stroke-width: 1.0; stroke-dasharray: 7.0,7.0;"/><polygon fill="#A80036" points="975.84,703.9219,966.84,699.9219,970.84,703.9219,966.84,707.9219,975.84,703.9219" style="stroke: #A80036; stroke-width: 1.0;"/><text fill="#000000" font-family="sans-serif" font-size="13" lengthAdjust="spacingAndGlyphs" textLength="54" x="851" y="699.9888">«sends»</text><!--MD5=[d2d0faf01efbc4183355fb77999517f9]
link UC_JobCreate to UC_CheckStatus--><path d="M394.18,354.5919 C415.76,359.9319 440.19,367.5219 461,377.9219 C511.73,403.2819 512.23,428.7319 562,455.9219 C575.37,463.2219 590.3,469.6619 604.85,475.1419 " fill="none" id="UC_JobCreate-&gt;UC_CheckStatus" style="stroke: #A80036; stroke-width: 1.0; stroke-dasharray: 7.0,7.0;"/><polygon fill="#A80036" points="609.77,476.9619,602.7106,470.0942,605.079,475.2314,599.9418,477.5997,609.77,476.9619" style="stroke: #A80036; stroke-width: 1.0;"/><text fill="#000000" font-family="sans-serif" font-size="13" lengthAdjust="spacingAndGlyphs" textLength="61" x="470" y="378.9888">«include»</text><!--MD5=[c2b171c245b657fc09ceb8c4b090ef07]
link UC_Apply to UC_CheckStatus--><path d="M411.69,971.9319 C430.63,966.6819 449.03,957.5519 461,941.9219 C473.94,925.0219 456.1,575.8519 469,558.9219 C491.63,529.2119 527.93,513.2119 563.9,504.7619 " fill="none" id="UC_Apply-&gt;UC_CheckStatus" style="stroke: #A80036; stroke-width: 1.0; stroke-dasharray: 7.0,7.0;"/><polygon fill="#A80036" points="569.21,503.5719,559.5554,501.6255,564.3297,504.6596,561.2957,509.4339,569.21,503.5719" style="stroke: #A80036; stroke-width: 1.0;"/><text fill="#000000" font-family="sans-serif" font-size="13" lengthAdjust="spacingAndGlyphs" textLength="61" x="470" y="511.9888">«include»</text><!--MD5=[44cd79ac42fdaa4825a6fdd40e3ee39d]
link UC_Apply to UC_Unique--><path d="M416.2,977.9219 C459.87,977.9219 515.08,977.9219 563.44,977.9219 " fill="none" id="UC_Apply-&gt;UC_Unique" style="stroke: #A80036; stroke-width: 1.0; stroke-dasharray: 7.0,7.0;"/><polygon fill="#A80036" points="568.7,977.9219,559.7,973.9219,563.7,977.9219,559.7,981.9219,568.7,977.9219" style="stroke: #A80036; stroke-width: 1.0;"/><text fill="#000000" font-family="sans-serif" font-size="13" lengthAdjust="spacingAndGlyphs" textLength="61" x="470" y="973.9888">«include»</text><!--MD5=[23a2c39856e2b85d19ecd3863c955783]
reverse link UC_JobManage to UC_DownCV--><path d="M430.56,271.9219 C482.06,271.9219 545.58,271.9219 595.24,271.9219 " fill="none" id="UC_JobManage&lt;-UC_DownCV" style="stroke: #A80036; stroke-width: 1.0; stroke-dasharray: 7.0,7.0;"/><polygon fill="#A80036" points="425.3,271.9219,434.3,275.9219,430.3,271.9219,434.3,267.9219,425.3,271.9219" style="stroke: #A80036; stroke-width: 1.0;"/><text fill="#000000" font-family="sans-serif" font-size="13" lengthAdjust="spacingAndGlyphs" textLength="60" x="470.5" y="267.9888">«extend»</text><!--MD5=[475b4c411315c6093bd5a8696054d156]
link UC_CorpProfile to GMN55--><path d="M243.3,411.9519 C212.33,404.4419 182.47,389.4819 169.5,360.4219 C150.12,316.9919 150.12,296.8519 169.5,253.4219 C190.41,206.5719 239.66,173.6919 279.37,153.7119 " fill="none" id="UC_CorpProfile-GMN55" style="stroke: #A80036; stroke-width: 1.0; stroke-dasharray: 7.0,7.0;"/><text fill="#000000" font-family="sans-serif" font-size="14" lengthAdjust="spacingAndGlyphs" textLength="400" x="381" y="1331.917">Vista completa de todos los módulos y actores integrados</text><text fill="#888888" font-family="sans-serif" font-size="10" lengthAdjust="spacingAndGlyphs" textLength="238" x="462" y="1344.501">Versión Final 2.0 - Consolidada según ERS y ACP</text><!--MD5=[3d1a10dcd3ead3fb84c001cbc8700612]
@startuml
title <size:20>Sistema de Banco de Datos CJDB (Diagrama Maestro)</size>
header Proyecto CJDB
footer Versión Final 2.0 - Consolidada según ERS y ACP
caption Vista completa de todos los módulos y actores integrados

left to right direction
skinparam packageStyle rectangle
skinparam roundcorner 10

actor "Visitante" as Guest
actor "Buscador de Empleo" as Searcher
actor "Empleador" as Employer
actor "Administrador" as Admin
actor "Sistema de Correo" as Mail <<System>>

rectangle "Plataforma Banco de Datos CJDB" {

    package "1. Autenticación (RF-01)" {
        usecase "Registrarse" as UC_Reg
        usecase "Iniciar Sesión" as UC_Login
        usecase "Validar Token Email" as UC_Valid
        usecase "Recuperar Contraseña" as UC_Recov
        usecase "Enviar Correo de Verificación" as UC_SendEmail <<Internal>>
    }

    package "2. Gestión Empleador (RF-02)" {
        usecase "Gestionar Perfil Empresa" as UC_CorpProfile
        usecase "Publicar Vacante" as UC_JobCreate
        usecase "Gestionar Candidatos" as UC_JobManage
        usecase "Descargar CV (PDF)" as UC_DownCV
    }

    package "3. Búsqueda y Postulación (RF-03/04)" {
        usecase "Buscar Ofertas" as UC_Search
        usecase "Gestionar Perfil/CV" as UC_CandProfile
        usecase "Postular a Vacante" as UC_Apply
        usecase "Validar Postulación Única" as UC_Unique <<Internal>>
    }

    package "4. Back-Office (RF-05)" {
        usecase "Moderar Usuarios/Ofertas" as UC_Mod
        usecase "Ver Métricas" as UC_Stats
    }

    usecase "Verificar Estado 'Verificado'" as UC_CheckStatus <<Abstract>>
}


Guest - - UC_Reg
Guest - - UC_Login
Guest - - UC_Search
Guest - - UC_Recov
Guest - - UC_Valid

Searcher - - UC_CandProfile
Searcher - - UC_Apply
Searcher - - UC_Search
Searcher - - UC_Login

Employer - - UC_CorpProfile
Employer - - UC_JobCreate
Employer - - UC_JobManage
Employer - - UC_DownCV
Employer - - UC_Login

Admin - - UC_Mod
Admin - - UC_Stats
Admin - - UC_Login


UC_Reg ..> UC_SendEmail : <<include>>
UC_Recov ..> UC_SendEmail : <<include>>
UC_SendEmail ..> Mail : <<sends>>

UC_JobCreate ..> UC_CheckStatus : <<include>>
UC_Apply ..> UC_CheckStatus : <<include>>
UC_Apply ..> UC_Unique : <<include>>

UC_JobManage <.. UC_DownCV : <<extend>>

note right of UC_CheckStatus
  **Seguridad (RF-01):**
  Acciones críticas requieren
  correo validado previamente.
end note

note bottom of UC_CorpProfile
  **RF-02:**
  Incluye Logo y 
  Descripción.
end note

@enduml

PlantUML version 1.2020.02(Sun Mar 01 06:22:07 VET 2020)
(GPL source distribution)
Java Runtime: OpenJDK Runtime Environment
JVM: OpenJDK 64-Bit Server VM
Java Version: 17.0.18+8-Debian-1deb12u1
Operating System: Linux
Default Encoding: ANSI_X3.4-1968
Language: en
Country: US
--></g></svg>